<svg xmlns="http://www.w3.org/2000/svg" style="display: none;"><symbol id="signs" viewBox="0 0 512 512"><title>signs</title><g> <g> <path d="M437.019,74.981C388.667,26.629,324.38,0,256,0C196.696,0,138.885,20.747,93.213,58.417 c-3.672,3.027-4.193,8.458-1.165,12.129c3.029,3.672,8.461,4.191,12.13,1.164C146.77,36.58,200.688,17.232,256,17.232 c131.657,0,238.767,107.11,238.766,238.768c0,59.105-21.769,115.828-61.299,159.722c-3.183,3.536-2.899,8.984,0.638,12.168 c1.647,1.483,3.708,2.214,5.764,2.214c2.356,0,4.704-0.962,6.405-2.851c42.385-47.062,65.727-107.882,65.727-171.254 C511.999,187.62,485.371,123.333,437.019,74.981z"/> </g> </g><g> <g> <path d="M421.677,439.89c-3.063-3.642-8.497-4.114-12.14-1.051c-42.901,36.065-97.429,55.927-153.538,55.927 c-131.657,0-238.767-107.11-238.767-238.767c0-59.932,22.307-117.247,62.813-161.384c3.218-3.506,2.985-8.956-0.522-12.174 c-3.507-3.218-8.959-2.982-12.174,0.523c-43.432,47.325-67.35,108.777-67.35,173.036c0,68.381,26.629,132.668,74.981,181.02 C123.333,485.371,187.621,512,256,512c60.16,0,118.625-21.297,164.626-59.97C424.269,448.968,424.739,443.533,421.677,439.89z"/> </g> </g><g> <g> <path d="M289.368,189.061h-66.735c-4.76,0-8.616,3.858-8.616,8.616v225.799c0,4.758,3.857,8.616,8.616,8.616h66.735 c4.76,0,8.616-3.858,8.616-8.617V197.677C297.984,192.918,294.127,189.061,289.368,189.061z M280.753,414.86H231.25V206.293 h49.503V414.86z"/> </g> </g><g> <g> <path d="M256,78.701c-26.429,0-47.93,21.502-47.93,47.93c0,26.429,21.501,47.93,47.93,47.93s47.93-21.502,47.93-47.93 C303.93,100.202,282.429,78.701,256,78.701z M256,157.329c-16.927,0-30.698-13.771-30.698-30.698 c0-16.927,13.772-30.698,30.698-30.698c16.927,0,30.698,13.771,30.698,30.698C286.698,143.558,272.927,157.329,256,157.329z"/> </g> </g></symbol><symbol id="round" viewBox="0 0 400 400"><title>round</title><path d="M199.992,0C89.719,0,0,89.72,0,200s89.719,200,199.992,200C310.273,400,400,310.28,400,200S310.273,0,199.992,0z M199.992,373.77C104.18,373.77,26.23,295.816,26.23,200c0-95.817,77.949-173.769,173.762-173.769 c95.824,0,173.776,77.953,173.776,173.769C373.769,295.816,295.816,373.77,199.992,373.77z"/><path d="M196.293,125.97c9.656,0,17.488-7.832,17.488-17.489c0-9.657-7.832-17.489-17.488-17.489 c-9.664,0-17.488,7.832-17.488,17.489C178.805,118.138,186.629,125.97,196.293,125.97z"/><path d="M224.09,279.586h-10.969V154.564c0-7.243-5.871-13.116-13.113-13.116h-24.094c-7.242,0-13.113,5.873-13.113,13.116 s5.871,13.115,13.113,13.115h10.977v111.907h-10.977c-7.242,0-13.113,5.872-13.113,13.115c0,7.242,5.871,13.115,13.113,13.115 h48.176c7.246,0,13.117-5.873,13.117-13.115C237.207,285.458,231.336,279.586,224.09,279.586z"/></symbol><symbol id="money-bag" viewBox="0 0 481 481"><title>money-bag</title><path d="M256.7,301.9h-27.5c-10,0-18.1-8.1-18.1-18.1s8.1-18.1,18.1-18.1h48.4c6.6,0,12-5.4,12-12c0-6.6-5.4-12-12-12h-22.7V225 c0-6.6-5.4-12-12-12s-12,5.4-12,12v16.7h-1.7c-23.2,0-42.1,18.9-42.1,42.1s18.9,42.1,42.1,42.1h27.5c10,0,18.1,8.1,18.1,18.1 s-8.1,18.1-18.1,18.1h-49.3c-6.6,0-12,5.4-12,12c0,6.6,5.4,12,12,12H231v17.1c0,6.6,5.4,12,12,12c6.6,0,12-5.4,12-12v-17.1h2 c0.1,0,0.2,0,0.3,0c23-0.3,41.5-19.1,41.5-42.1C298.8,320.8,279.9,301.9,256.7,301.9z"/><path d="M423.3,274.7c-12.6-29-30-57.1-52-83.4c-26.6-32-53.1-53.4-66.6-63.3l51-94.6c2.5-4.7,1.7-10.5-2.2-14.2 C340.3,6.3,326.3,0,310.7,0c-14.3,0-27.4,5.4-38.8,10.2c-9,3.7-17.5,7.3-24.4,7.3c-2.1,0-3.9-0.3-5.7-1C218,7.8,199.7,2.4,182,2.4 c-22.4,0-41.5,9-60.2,28.2c-3.9,4-4.5,10.3-1.4,15l55,83.1c-13.6,10.1-39.6,31.3-65.7,62.6c-21.9,26.3-39.4,54.4-52,83.4 c-15.8,36.5-23.8,74.6-23.8,113.2c0,51.3,41.8,93.1,93.1,93.1h227c51.3,0,93.1-41.8,93.1-93.1 C447.1,349.3,439.1,311.2,423.3,274.7z M146,40.6c11.6-10,22.7-14.4,36-14.4c14.2,0,30.2,4.8,51.5,12.7c4.4,1.6,9.1,2.4,13.9,2.4 c11.7,0,22.9-4.6,33.6-9.1c10.3-4.3,20.1-8.4,29.6-8.4c4.6,0,11.1,0.8,19.3,6.6l-48,89.2h-83.6L146,40.6z M354,457H127 c-38.1,0-69.1-31-69.1-69.1c0-64.1,23.5-124.9,69.7-180.7c29.2-35.3,58.9-57.2,67.9-63.6h89.8c9.1,6.3,38.7,28.3,67.9,63.6 c46.3,55.8,69.7,116.5,69.7,180.7C423.1,426,392.1,457,354,457z"/></symbol><symbol id="distance-1" viewBox="0 0 490.1 490.1"><title>distance-1</title><path d="m447.25,360.1l-187.7-49.1 165.8-33.9-4.2-21.8-210.6,43.7c-13,2.8-9.4,20.9 0,21.8l168.9,44.8-191.8,13.1c-10.5,1.5-12.6,13.3-6.3,19.7l62.6,59-136.6,10.9 1,21.8 159.5-13.1c7.7,0.6 14.9-11.2 6.3-19.7l-61.5-59 233.5-16.4c11.5-0.5 12.8-18.6 1.1-21.8z"/><path d="m460.85,81.8c0-27.2-21.9-49.2-49-49.2s-49,22-49,49.2 21.9,49.2 49,49.2c26.1,0 49-22 49-49.2zm-77.1,1c0-15.7 12.5-28.3 28.1-28.3 14.6,0 28.1,11.5 28.1,27.2s-12.5,28.3-28.1,28.3c-15.6,0-28.1-11.5-28.1-27.2z"/><path d="m490.05,78.6c0-44-35.4-78.6-78.2-78.6-42.7,0-78.2,34.6-78.2,78.6 0,43.9 78.2,161.3 78.2,161.3s78.2-117.4 78.2-161.3zm-78.2-57.6c32.3,0 57.3,26.2 57.3,57.6 0,25.1-36.5,88-57.3,122.6-20.8-34.6-57.3-97.4-57.3-122.6 0-31.4 25-57.6 57.3-57.6z"/><path d="m78.25,269.9c-27.1,0-49,22-49,49.2s21.9,49.2 49,49.2c26.1,0 49-22 49-49.2s-21.9-49.2-49-49.2zm0,77.6c-15.6,0-28.1-11.5-28.1-27.2s12.5-28.3 28.1-28.3c14.6,0 28.1,11.5 28.1,27.2 0,15.7-12.5,28.3-28.1,28.3z"/><path d="m78.25,237.5c-42.7,0-78.2,34.6-78.2,78.6 0,43.9 78.2,161.3 78.2,161.3s78.2-117.4 78.2-161.3c0-44.1-35.5-78.6-78.2-78.6zm-57.3,78.5c-3.55271e-15-31.4 25-57.6 57.3-57.6s57.3,26.2 57.3,57.6c0,25.1-36.5,88-57.3,122.6-20.9-34.6-57.3-97.4-57.3-122.6z"/></symbol><symbol id="distance" viewBox="0 0 512 512"><title>distance</title><path d="M426.667,106.667c-47.052,0-85.333,38.281-85.333,85.333c0,31.796,36.642,88.85,59.561,121.451 c-1.374,1.042-2.591,2.301-3.353,3.977c-2.313,5.073-0.313,11.01,4.448,13.698c-4.656,2.865-6.438,8.865-3.948,13.854 c1.875,3.74,5.635,5.896,9.552,5.896c1.604,0,3.229-0.365,4.76-1.125l19.033-9.517l0.005-0.001l0.046-0.023l0.012-0.025 c1.421-0.714,2.691-1.73,3.686-3.027C443,326.885,512,235.594,512,192C512,144.948,473.719,106.667,426.667,106.667z M426.667,213.333c-11.76,0-21.333-9.573-21.333-21.333s9.573-21.333,21.333-21.333S448,180.24,448,192 S438.427,213.333,426.667,213.333z"/><path d="M111.383,483.719c22.936-32.664,59.284-89.383,59.284-121.052c0-47.052-38.281-85.333-85.333-85.333 C38.281,277.333,0,315.615,0,362.667c0,43.594,69,134.885,76.865,145.156c2.021,2.635,5.146,4.177,8.469,4.177 c1.68,0,3.302-0.404,4.763-1.133l0.008,0.008l19.083-9.542c5.271-2.635,7.406-9.042,4.771-14.313 C113.307,485.716,112.419,484.613,111.383,483.719z M85.333,384C73.573,384,64,374.427,64,362.667s9.573-21.333,21.333-21.333 c11.76,0,21.333,9.573,21.333,21.333S97.094,384,85.333,384z"/><path d="M234.385,414.875l-33.677,16.844c-5.271,2.635-7.406,9.042-4.771,14.313c1.875,3.74,5.635,5.896,9.552,5.896 c1.604,0,3.229-0.365,4.76-1.125l33.677-16.844c5.271-2.635,7.406-9.042,4.771-14.313 C246.052,414.375,239.635,412.26,234.385,414.875z"/><path d="M369.135,347.5l-33.688,16.844c-5.271,2.635-7.406,9.042-4.771,14.313c1.875,3.74,5.635,5.896,9.552,5.896 c1.604,0,3.229-0.365,4.76-1.125l33.688-16.844c5.271-2.635,7.406-9.042,4.771-14.313 C380.813,347.01,374.396,344.896,369.135,347.5z"/><path d="M167.021,448.563l-33.688,16.844c-5.271,2.635-7.406,9.042-4.771,14.313c1.875,3.74,5.635,5.896,9.552,5.896 c1.604,0,3.229-0.365,4.76-1.125l33.688-16.844c5.271-2.635,7.406-9.042,4.771-14.313 C178.688,448.063,172.281,445.958,167.021,448.563z"/><path d="M301.76,381.188l-33.688,16.844c-5.271,2.635-7.406,9.042-4.771,14.313c1.875,3.74,5.635,5.896,9.552,5.896 c1.604,0,3.229-0.365,4.76-1.125l33.688-16.844c5.271-2.635,7.406-9.042,4.771-14.313 C313.427,380.688,307.031,378.563,301.76,381.188z"/><path d="M368.073,314.708c4.063,0,7.938-2.323,9.719-6.25c2.438-5.365,0.073-11.688-5.292-14.125l-39.167-17.802 c-5.427-2.458-11.698-0.052-14.125,5.292c-2.438,5.365-0.073,11.688,5.292,14.125l39.167,17.802 C365.104,314.406,366.604,314.708,368.073,314.708z"/><path d="M240.885,246.219c-2.438,5.365-0.073,11.688,5.292,14.125l39.156,17.802c1.438,0.656,2.938,0.958,4.406,0.958 c4.063,0,7.938-2.323,9.719-6.25c2.438-5.365,0.073-11.688-5.292-14.125l-39.156-17.802 C249.615,238.458,243.302,240.875,240.885,246.219z"/><path d="M211.406,243.49c4.063,0,7.938-2.323,9.719-6.25c2.438-5.365,0.063-11.688-5.292-14.125l-7.367-3.348 c20.206-27.582,68.867-97.78,68.867-134.434C277.333,38.281,239.052,0,192,0s-85.333,38.281-85.333,85.333 c0,43.594,69,134.885,76.865,145.156c1.055,1.375,2.424,2.41,3.952,3.125c0.066,0.031,0.03,0.061,0.1,0.094L207,242.531 C208.438,243.188,209.938,243.49,211.406,243.49z M170.667,85.333C170.667,73.573,180.24,64,192,64s21.333,9.573,21.333,21.333 c0,11.76-9.573,21.333-21.333,21.333S170.667,97.094,170.667,85.333z"/></symbol><symbol id="airplane" viewBox="0 0 496 496"><title>airplane</title><rect x="55.99" y="254.01" transform="matrix(0.2167 0.9762 -0.9762 0.2167 306.0974 142.9137)" width="15.999" height="16.391"/><path d="M448,233.232V192h-56v10.904l-88-47.664V92.752c0-3.672-0.368-7.36-1.088-10.984l-8.8-43.96 C289.736,15.896,270.344,0,248,0s-41.736,15.896-46.12,37.808l-8.8,43.968c-0.712,3.616-1.08,7.304-1.08,10.976v62.488 l-88,47.664V192H48v41.232l-48,26V304h16.688L192,273.512v63.336c0,19.536,2.992,38.824,8.6,57.488L120,451.88V496h16.984 l89.768-22.448l7.48,22.448h27.528l7.48-22.448l88.816,22.208L376,496v-44.12l-80.6-57.552c5.608-18.664,8.6-37.944,8.6-57.488 v-63.336l174.632,30.368L496,304v-44.768L448,233.232z M64,208h24v3.568l-24,13V208z M192,225.576L86.264,249.072l3.472,15.624 L192,241.976v15.296L16,287.88v-19.12l176-95.336V225.576z M136,479.752V460.12l69.688-49.76l15.992,47.984L136,479.752z M250.232,480h-4.472l-28.32-84.976c-6.264-18.792-9.44-38.368-9.44-58.184V92.752c0-2.624,0.256-5.264,0.776-7.84l8.8-43.96 C220.464,26.496,233.256,16,248,16s27.536,10.496,30.432,24.944l8.8,43.952c0.512,2.592,0.768,5.232,0.768,7.856v244.096 c0,19.816-3.176,39.392-9.44,58.176L250.232,480z M360,460.12v19.632l-85.68-21.416l15.992-47.984L360,460.12z M408,208h24 v16.568l-24-13V208z M480,287.88l-176-30.608v-15.296l102.264,22.728l3.472-15.624L304,225.584v-52.152l176,95.336V287.88z"/><rect x="423.829" y="254.203" transform="matrix(0.9762 0.2169 -0.2169 0.9762 67.1562 -87.4637)" width="16.392" height="16"/></symbol><symbol id="hospital" viewBox="0 0 512 512"><title>hospital</title><g> <g> <path d="M502.857,146.286H365.714V9.143c0-5.047-4.096-9.143-9.143-9.143H155.429c-5.047,0-9.143,4.096-9.143,9.143v137.143H9.143 c-5.047,0-9.143,4.096-9.143,9.143v347.429C0,507.904,4.096,512,9.143,512h146.286h64h73.143h64h146.286 c5.047,0,9.143-4.096,9.143-9.143V155.429C512,150.382,507.904,146.286,502.857,146.286z M146.286,493.714h-128V164.571h128 V493.714z M283.429,493.714h-54.857v-73.143h54.857V493.714z M347.429,155.429v338.286h-45.714v-73.143H320v-18.286h-27.429 h-73.143H192v18.286h18.286v73.143h-45.714V155.429V18.286h182.857V155.429z M493.714,493.714h-128V164.571h128V493.714z"/> </g> </g><g> <g> <path d="M118.857,182.857H45.714c-5.047,0-9.143,4.096-9.143,9.143v36.571c0,5.047,4.096,9.143,9.143,9.143h73.143 c5.047,0,9.143-4.096,9.143-9.143V192C128,186.953,123.904,182.857,118.857,182.857z M73.143,219.429H54.857v-18.286h18.286 V219.429z M109.714,219.429H91.429v-18.286h18.286V219.429z"/> </g> </g><g> <g> <path d="M118.857,256H45.714c-5.047,0-9.143,4.096-9.143,9.143v36.571c0,5.047,4.096,9.143,9.143,9.143h73.143 c5.047,0,9.143-4.096,9.143-9.143v-36.571C128,260.096,123.904,256,118.857,256z M73.143,292.571H54.857v-18.286h18.286V292.571z M109.714,292.571H91.429v-18.286h18.286V292.571z"/> </g> </g><g> <g> <path d="M118.857,329.143H45.714c-5.047,0-9.143,4.096-9.143,9.143v36.571c0,5.047,4.096,9.143,9.143,9.143h73.143 c5.047,0,9.143-4.096,9.143-9.143v-36.571C128,333.239,123.904,329.143,118.857,329.143z M73.143,365.714H54.857v-18.286h18.286 V365.714z M109.714,365.714H91.429v-18.286h18.286V365.714z"/> </g> </g><g> <g> <path d="M466.286,182.857h-73.143c-5.047,0-9.143,4.096-9.143,9.143v36.571c0,5.047,4.096,9.143,9.143,9.143h73.143 c5.047,0,9.143-4.096,9.143-9.143V192C475.429,186.953,471.333,182.857,466.286,182.857z M420.571,219.429h-18.286v-18.286h18.286 V219.429z M457.143,219.429h-18.286v-18.286h18.286V219.429z"/> </g> </g><g> <g> <path d="M466.286,256h-73.143c-5.047,0-9.143,4.096-9.143,9.143v36.571c0,5.047,4.096,9.143,9.143,9.143h73.143 c5.047,0,9.143-4.096,9.143-9.143v-36.571C475.429,260.096,471.333,256,466.286,256z M420.571,292.571h-18.286v-18.286h18.286 V292.571z M457.143,292.571h-18.286v-18.286h18.286V292.571z"/> </g> </g><g> <g> <path d="M466.286,329.143h-73.143c-5.047,0-9.143,4.096-9.143,9.143v36.571c0,5.047,4.096,9.143,9.143,9.143h73.143 c5.047,0,9.143-4.096,9.143-9.143v-36.571C475.429,333.239,471.333,329.143,466.286,329.143z M420.571,365.714h-18.286v-18.286 h18.286V365.714z M457.143,365.714h-18.286v-18.286h18.286V365.714z"/> </g> </g><g> <g> <path d="M310.857,73.143h-27.429V45.714c0-5.047-4.096-9.143-9.143-9.143h-36.571c-5.047,0-9.143,4.096-9.143,9.143v27.429 h-27.429c-5.047,0-9.143,4.096-9.143,9.143v36.571c0,5.047,4.096,9.143,9.143,9.143h27.429v27.429 c0,5.047,4.096,9.143,9.143,9.143h36.571c5.047,0,9.143-4.096,9.143-9.143V128h27.429c5.047,0,9.143-4.096,9.143-9.143V82.286 C320,77.239,315.904,73.143,310.857,73.143z M301.714,109.714h-27.429c-5.047,0-9.143,4.096-9.143,9.143v27.429h-18.286v-27.429 c0-5.047-4.096-9.143-9.143-9.143h-27.429V91.429h27.429c5.047,0,9.143-4.096,9.143-9.143V54.857h18.286v27.429 c0,5.047,4.096,9.143,9.143,9.143h27.429V109.714z"/> </g> </g><g> <g> <path d="M237.714,182.857h-36.571c-5.047,0-9.143,4.096-9.143,9.143v36.571c0,5.047,4.096,9.143,9.143,9.143h36.571 c5.047,0,9.143-4.096,9.143-9.143V192C246.857,186.953,242.761,182.857,237.714,182.857z M228.571,219.429h-18.286v-18.286h18.286 V219.429z"/> </g> </g><g> <g> <path d="M310.857,182.857h-36.571c-5.047,0-9.143,4.096-9.143,9.143v36.571c0,5.047,4.096,9.143,9.143,9.143h36.571 c5.047,0,9.143-4.096,9.143-9.143V192C320,186.953,315.904,182.857,310.857,182.857z M301.714,219.429h-18.286v-18.286h18.286 V219.429z"/> </g> </g><g> <g> <path d="M237.714,256h-36.571c-5.047,0-9.143,4.096-9.143,9.143v36.571c0,5.047,4.096,9.143,9.143,9.143h36.571 c5.047,0,9.143-4.096,9.143-9.143v-36.571C246.857,260.096,242.761,256,237.714,256z M228.571,292.571h-18.286v-18.286h18.286 V292.571z"/> </g> </g><g> <g> <path d="M310.857,256h-36.571c-5.047,0-9.143,4.096-9.143,9.143v36.571c0,5.047,4.096,9.143,9.143,9.143h36.571 c5.047,0,9.143-4.096,9.143-9.143v-36.571C320,260.096,315.904,256,310.857,256z M301.714,292.571h-18.286v-18.286h18.286V292.571 z"/> </g> </g><g> <g> <path d="M237.714,329.143h-36.571c-5.047,0-9.143,4.096-9.143,9.143v36.571c0,5.047,4.096,9.143,9.143,9.143h36.571 c5.047,0,9.143-4.096,9.143-9.143v-36.571C246.857,333.239,242.761,329.143,237.714,329.143z M228.571,365.714h-18.286v-18.286 h18.286V365.714z"/> </g> </g><g> <g> <path d="M310.857,329.143h-36.571c-5.047,0-9.143,4.096-9.143,9.143v36.571c0,5.047,4.096,9.143,9.143,9.143h36.571 c5.047,0,9.143-4.096,9.143-9.143v-36.571C320,333.239,315.904,329.143,310.857,329.143z M301.714,365.714h-18.286v-18.286h18.286 V365.714z"/> </g> </g><g> <g> <rect x="36.571" y="402.286" width="18.286" height="18.286"/> </g> </g><g> <g> <rect x="73.143" y="402.286" width="18.286" height="18.286"/> </g> </g><g> <g> <rect x="109.714" y="402.286" width="18.286" height="18.286"/> </g> </g><g> <g> <rect x="384" y="402.286" width="18.286" height="18.286"/> </g> </g><g> <g> <rect x="420.571" y="402.286" width="18.286" height="18.286"/> </g> </g><g> <g> <rect x="457.143" y="402.286" width="18.286" height="18.286"/> </g> </g></symbol><symbol id="healthy" viewBox="0 0 512 512"><title>healthy</title><g> <g> <path d="M150.978,72.355c-12.605,0-24.837,2.47-36.359,7.344c-4.653,1.969-6.832,7.337-4.862,11.991 c1.968,4.654,7.336,6.831,11.991,4.863c6.44-2.724,13.167-4.491,20.079-5.328v149.054c-37.108-4.531-65.951-36.212-65.951-74.524 c0-18.72,6.928-36.653,19.507-50.494c3.399-3.739,3.123-9.527-0.617-12.924c-3.737-3.398-9.527-3.123-12.924,0.617 c-15.647,17.216-24.265,39.519-24.265,62.801c0,51.501,41.9,93.4,93.4,93.4c51.502,0,93.402-41.9,93.402-93.4 C244.379,114.254,202.48,72.355,150.978,72.355z M160.127,240.278V91.231c37.108,4.531,65.952,36.212,65.952,74.524 S197.235,235.748,160.127,240.278z"/> </g> </g><g> <g> <path d="M333.595,442.866c-4.294-13.504-13.589-24.525-26.173-31.033c-12.579-6.512-26.944-7.732-40.443-3.439 c-13.501,4.294-24.524,13.589-31.031,26.171c-6.512,12.579-7.732,26.942-3.435,40.445c4.295,13.5,13.588,24.52,26.167,31.031 c0,0,0.001,0,0.001,0.001c7.648,3.955,15.949,5.958,24.316,5.958c5.404,0,10.834-0.836,16.132-2.52 c13.498-4.293,24.518-13.588,31.027-26.171C336.667,470.729,337.888,456.366,333.595,442.866z M313.902,474.898 c-4.264,8.242-11.481,14.33-20.321,17.142c-8.841,2.812-18.249,2.01-26.491-2.253c-8.24-4.265-14.325-11.484-17.139-20.326 c-2.813-8.844-2.014-18.249,2.25-26.488c4.264-8.242,11.482-14.33,20.325-17.142c8.844-2.812,18.248-2.012,26.488,2.253 c8.243,4.264,14.33,11.481,17.143,20.325C318.966,457.252,318.166,466.658,313.902,474.898z"/> </g> </g><g> <g> <path d="M318.555,196.691c-2.519-7.916-7.969-14.376-15.339-18.186c-15.212-7.882-34.014-1.908-41.909,13.328 c-7.867,15.218-1.89,34.014,13.326,41.897c0.002,0.001,0.005,0.002,0.007,0.004c4.478,2.315,9.342,3.488,14.245,3.488 c3.171,0,6.356-0.49,9.463-1.479c7.919-2.518,14.38-7.966,18.188-15.334C320.36,213.033,321.076,204.611,318.555,196.691z M300.286,211.999c-1.566,3.032-4.225,5.27-7.482,6.306c-3.256,1.036-6.722,0.743-9.752-0.822 c-6.265-3.246-8.728-10.983-5.492-17.239c3.249-6.271,10.982-8.733,17.247-5.487c3.033,1.569,5.275,4.226,6.312,7.484 C302.155,205.498,301.86,208.961,300.286,211.999z"/> </g> </g><g> <g> <path d="M462.406,428.184c-2.516-7.913-7.966-14.374-15.351-18.196c-15.221-7.869-34.014-1.89-41.902,13.332 c-7.868,15.219-1.891,34.014,13.324,41.898c0.002,0.001,0.005,0.002,0.007,0.004c4.557,2.356,9.43,3.471,14.237,3.471 c11.261,0,22.147-6.129,27.661-16.795C464.206,444.521,464.924,436.1,462.406,428.184z M444.132,443.486 c-3.238,6.262-10.967,8.721-17.243,5.48c-6.258-3.248-8.718-10.981-5.484-17.234c3.245-6.265,10.984-8.725,17.243-5.49 c3.039,1.574,5.284,4.233,6.319,7.489C446.002,436.984,445.707,440.445,444.132,443.486z"/> </g> </g><g> <g> <path d="M181.691,352.729c-1.532-4.815-6.676-7.477-11.493-5.947c-4.815,1.531-7.478,6.677-5.947,11.492 c3.343,10.515,3.319,21.549,0.066,31.858l-92.551-47.888c6.534-8.611,15.528-15.007,26.039-18.352 c13.465-4.284,27.792-3.069,40.343,3.424c3.76,1.945,7.269,4.324,10.431,7.071c3.815,3.315,9.594,2.91,12.907-0.905 c3.315-3.815,2.91-9.594-0.905-12.908c-4.256-3.699-8.975-6.9-14.022-9.511c-16.893-8.741-36.178-10.378-54.302-4.609 c-18.122,5.767-32.917,18.246-41.658,35.139c-18.042,34.869-4.353,77.917,30.517,95.96c10.433,5.398,21.596,7.955,32.605,7.955 c25.785,0,50.71-14.036,63.356-38.471C185.816,390.144,187.456,370.858,181.691,352.729z M89.523,421.298 c-23.135-11.971-33.705-38.755-26.16-62.8l92.535,47.881C140.63,426.428,112.661,433.27,89.523,421.298z"/> </g> </g><g> <g> <path d="M300.124,3.879c-29.889-11.504-63.571,3.449-75.081,33.335c-11.507,29.893,3.454,63.573,33.348,75.08 c6.776,2.608,13.837,3.91,20.885,3.91c8.011,0,16.01-1.681,23.553-5.03c14.177-6.296,25.057-17.737,30.631-32.216 C344.965,49.069,330.011,15.389,300.124,3.879z M256.812,90.929c-14.885-10.172-21.442-29.604-14.692-47.139 c6.079-15.788,21.19-25.491,37.18-25.491c1.769,0,3.55,0.12,5.331,0.362L256.812,90.929z M316.381,72.384 c-3.818,9.916-11.27,17.753-20.982,22.065c-6.857,3.046-14.263,4.067-21.515,3.065l27.819-72.267 C316.579,35.419,323.131,54.849,316.381,72.384z"/> </g> </g><g> <g> <path d="M452.393,248.774c-7.55-14.47-20.286-25.134-35.857-30.027c-15.579-4.895-32.122-3.428-46.589,4.13 c-4.48,2.34-6.214,7.866-3.875,12.346c2.337,4.48,7.865,6.212,12.345,3.875c10.135-5.293,21.723-6.319,32.633-2.891 c10.909,3.428,19.829,10.898,25.119,21.035c10.921,20.927,2.783,46.836-18.141,57.754L378,335.883l-39.604-75.899l11.576-6.041 c4.481-2.339,6.217-7.865,3.878-12.345c-2.337-4.48-7.866-6.214-12.344-3.878l-67.827,35.394 c-29.861,15.583-41.48,52.566-25.896,82.444c10.572,20.258,31.346,32.841,54.213,32.841c9.757,0,19.518-2.401,28.23-6.943 l96.267-50.238C456.362,315.631,467.981,278.647,452.393,248.774z M321.763,365.231c-6.194,3.23-12.844,4.868-19.766,4.868 c-16.027,0-30.583-8.817-37.991-23.006c-10.916-20.93-2.778-46.839,18.141-57.757l40.027-20.887l39.604,75.9L321.763,365.231z"/> </g> </g><g> <g> <path d="M459.211,112.517c-6.804-10.47-18.67-19.874-31.745-25.158c-15.422-6.233-29.834-5.816-40.581,1.172 c-22.097,14.358-22.148,53.229-7.458,75.84c6.804,10.471,18.673,19.876,31.747,25.161c7.247,2.929,14.272,4.389,20.8,4.389 c7.361,0,14.091-1.858,19.79-5.562c10.755-6.988,16.989-19.994,17.552-36.621C469.794,137.646,466.016,122.984,459.211,112.517z M451.027,151.119c-0.349,10.329-3.714,18.31-9.23,21.895c-5.522,3.586-14.182,3.422-23.765-0.449 c-9.582-3.872-18.493-10.832-23.257-18.164c-4.764-7.333-7.506-18.306-7.154-28.633c0.351-10.327,3.718-18.307,9.239-21.893 c2.644-1.719,6.01-2.575,9.852-2.575c4.173,0,8.912,1.011,13.9,3.027c9.582,3.872,18.492,10.832,23.256,18.164 c0.001,0.001,0.001,0.001,0.001,0.001C448.634,129.821,451.378,140.791,451.027,151.119z"/> </g> </g></symbol><symbol id="mushroom" viewBox="0 0 512 512"><title>mushroom</title><path d="M17.067,238.933h209.331c-2.278,7.023-4.002,13.85-4.284,15.036c-0.162,0.666-0.247,1.348-0.247,2.031 c0,8.277,5.982,17.067,17.067,17.067h256c11.085,0,17.067-8.789,17.067-17.067c0-0.563-0.06-1.118-0.171-1.673 C491.221,151.262,415.71,68.267,366.933,68.267c-27.358,0-59.989,23.04-89.523,63.215c-2.79,3.797-1.98,9.139,1.818,11.93 c3.806,2.799,9.139,1.971,11.93-1.826c3.021-4.104,6.067-7.987,9.131-11.699c9.975,2.756,36.275,9.165,64.606,9.165 c9.719,0,19.695-0.759,29.312-2.688c4.617-0.922,7.62-5.419,6.69-10.035c-0.913-4.617-5.359-7.603-10.035-6.69 c-27.981,5.589-60.425-0.119-77.577-4.105c19.106-19.251,38.135-30.199,53.649-30.199c45.235,0,110.541,87.407,127.821,170.667 H239.198c1.314-5.043,3.354-12.032,5.265-17.067h28.604c11.085,0,17.067-8.789,17.067-17.067c0-0.563-0.06-1.118-0.171-1.672 c-20.608-103.066-96.12-186.061-144.896-186.061c-48.776,0-124.288,82.995-144.896,186.061C0.06,220.749,0,221.303,0,221.867 C0,230.144,5.982,238.933,17.067,238.933z M78.251,95.71c9.847,2.722,36.292,9.207,64.777,9.207 c9.719,0,19.695-0.759,29.312-2.679c4.617-0.93,7.62-5.427,6.69-10.044c-0.913-4.617-5.359-7.612-10.035-6.69 c-28.109,5.623-60.715-0.162-77.807-4.156c18.441-18.62,37.478-30.148,53.879-30.148c45.235,0,110.541,87.407,127.821,170.667 H17.237C26.778,175.949,50.927,128.794,78.251,95.71z"/><path d="M452.267,460.8h-51.618l-8.124-162.56c-0.239-4.71-4.318-8.491-8.951-8.098c-4.71,0.239-8.329,4.25-8.098,8.951 l8.081,161.707H350.31l8.081-161.707c0.23-4.702-3.388-8.713-8.098-8.951c-4.676-0.367-8.713,3.388-8.951,8.098l-8.124,162.56 H178.85l-8.192-196.617c-0.188-4.719-4.105-8.32-8.883-8.175c-4.71,0.196-8.363,4.173-8.166,8.883l8.166,195.908h-33.417 l8.166-195.908c0.196-4.71-3.456-8.687-8.166-8.883c-4.668-0.154-8.687,3.456-8.883,8.175L111.283,460.8H93.867 c-4.719,0-8.533,3.823-8.533,8.533s3.814,8.533,8.533,8.533h358.4c4.719,0,8.533-3.823,8.533-8.533S456.986,460.8,452.267,460.8z "/><path d="M59.733,460.8h-51.2C3.814,460.8,0,464.623,0,469.333s3.814,8.533,8.533,8.533h51.2c4.719,0,8.533-3.823,8.533-8.533 S64.452,460.8,59.733,460.8z"/><path d="M503.467,460.8H486.4c-4.719,0-8.533,3.823-8.533,8.533s3.814,8.533,8.533,8.533h17.067c4.719,0,8.533-3.823,8.533-8.533 S508.186,460.8,503.467,460.8z"/></symbol><symbol id="bag" viewBox="0 0 512 512"><title>bag</title><g> <g> <path d="M459.786,0H52.214c-4.2,0-7.604,3.405-7.604,7.604v399.734c0,4.199,3.404,7.604,7.604,7.604s7.604-3.405,7.604-7.604 V15.208h392.364v481.584H59.818v-64.107c0-4.199-3.404-7.604-7.604-7.604s-7.604,3.405-7.604,7.604v71.711 c0,4.199,3.404,7.604,7.604,7.604h407.572c4.2,0,7.604-3.405,7.604-7.604V7.604C467.39,3.405,463.987,0,459.786,0z"/> </g> </g><g> <g> <path d="M420.767,352.477L95.188,264.761c-2.284-0.615-4.725-0.133-6.603,1.307c-1.879,1.439-2.979,3.67-2.979,6.036v149.655 c0,24.194,19.683,43.877,43.877,43.877h253.033c24.193,0,43.876-19.683,43.876-43.877v-61.939 C426.393,356.381,424.086,353.371,420.767,352.477z M411.186,421.758L411.186,421.758c-0.001,15.808-12.862,28.669-28.669,28.669 H129.483c-15.808,0-28.669-12.861-28.669-28.669V282.027l310.371,83.619V421.758z"/> </g> </g><g> <g> <path d="M431.398,42.582H80.602c-4.2,0-7.604,3.405-7.604,7.604s3.404,7.604,7.604,7.604h350.796c4.2,0,7.604-3.405,7.604-7.604 S435.598,42.582,431.398,42.582z"/> </g> </g><g> <g> <path d="M431.398,82.396h-68.94c-4.2,0-7.604,3.405-7.604,7.604s3.404,7.604,7.604,7.604h68.94c4.2,0,7.604-3.405,7.604-7.604 S435.598,82.396,431.398,82.396z"/> </g> </g><g> <g> <path d="M337.112,82.396H80.602c-4.2,0-7.604,3.405-7.604,7.604s3.404,7.604,7.604,7.604h256.51c4.2,0,7.604-3.405,7.604-7.604 S341.312,82.396,337.112,82.396z"/> </g> </g><g> <g> <path d="M169.056,360.954c-2.444-1.735-5.761-1.884-8.335-0.341c-3.173,1.901-4.563,5.997-3.114,9.425 c1.227,2.911,4.16,4.814,7.332,4.687c3.066-0.123,5.799-2.158,6.845-5.033C172.926,366.552,171.783,362.888,169.056,360.954z"/> </g> </g><g> <g> <path d="M209.815,363.69c-2.564-2.096-6.287-2.278-9.047-0.445c-2.975,1.976-4.194,5.927-2.798,9.226 c2.536,6.49,12.088,5.913,14.236-0.522C213.185,369.013,212.21,365.648,209.815,363.69z"/> </g> </g><g> <g> <path d="M189.057,397.897c-2.585-2.217-6.488-2.412-9.279-0.459c-2.884,2.02-4.047,5.888-2.674,9.15 c1.186,2.973,4.31,4.878,7.487,4.677c3.059-0.193,5.791-2.284,6.743-5.202C192.285,403.152,191.385,399.893,189.057,397.897z"/> </g> </g><g> <g> <path d="M343.481,392.276c-3.226,1.919-4.519,5.972-3.136,9.435c1.231,2.909,4.172,4.822,7.343,4.688 c3.146-0.133,5.894-2.239,6.895-5.21C356.791,394.643,349.369,388.773,343.481,392.276z"/> </g> </g><g> <g> <path d="M312.059,411.628c-3.354,1.811-4.879,6.056-3.386,9.58c1.179,2.8,3.973,4.703,7.026,4.694 c3.186-0.009,6.067-2.051,7.151-5.042C325.197,414.383,318.033,408.404,312.059,411.628z"/> </g> </g></symbol><symbol id="hookah" viewBox="0 0 512 512"><title>hookah</title><path d="M436.774,32.417c-0.35-4.634-4.389-8.108-9.024-7.757c-4.633,0.35-8.107,4.39-7.757,9.024 c1.795,23.766-0.748,58.43-23.058,88.606c-22.341,30.219-54.028,40.732-71.052,46.381c-25.21,8.363-48.352,10.542-69.817,9.979 c1.881-4.059,2.939-8.576,2.939-13.337c0-14.823-10.186-27.312-23.925-30.836v-10.971h44.928 c17.013,0,30.853-13.841,30.853-30.853v-8.975c0-4.648-3.767-8.414-8.414-8.414h-40.949l16.837-54.309 c1.537-4.958,0.653-10.199-2.427-14.377c-3.08-4.178-7.823-6.574-13.014-6.574h-44.643c-4.647,0-8.414,3.766-8.414,8.414 c0,4.648,3.767,8.414,8.414,8.414h43.744l-18.115,58.433h-34.692l-24.79-69.67c-1.557-4.378-6.372-6.66-10.748-5.107 c-4.379,1.558-6.664,6.371-5.107,10.749l22.783,64.026H151.55c-4.647,0-8.414,3.766-8.414,8.414v8.975 c0,17.012,13.84,30.853,30.853,30.853h44.264v11.26c-13.218,3.868-22.905,16.095-22.905,30.548c0,2.343,0.261,4.625,0.745,6.825 c-33.415-4.715-62.472-7.003-86.439,15.173c-6.523,6.037-21.919,22.699-23.986,46.974c-0.14,1.644-3.061,40.486,28.382,61.555 c12.524,8.392,25.511,10.719,36.061,10.719c4.212,0,8.032-0.371,11.281-0.875c2.441,7.023,7.351,12.896,13.687,16.582 c-31.123,17.28-52.237,50.487-52.237,88.538c0,18.833,5.246,37.127,14.972,52.956h-23.671c-21.723,0-39.396,17.674-39.396,39.396 v0.432c0,4.648,3.767,8.414,8.414,8.414h287.676c4.647,0,8.414-3.766,8.414-8.414v-0.432c0-21.723-17.672-39.396-39.396-39.396 H158.359c-12.076-14.965-18.689-33.624-18.689-52.956c0-46.521,37.848-84.369,84.369-84.369c46.521,0,84.37,37.848,84.37,84.369 c0,8.859-1.364,17.581-4.056,25.923c-1.426,4.422,1.003,9.164,5.426,10.59c4.424,1.427,9.164-1.003,10.591-5.426 c3.229-10.014,4.867-20.474,4.867-31.088c0-36.91-19.866-69.262-49.463-86.941c10.899-4.765,18.539-15.645,18.539-28.281 c0-13.885-9.222-25.654-21.862-29.512c-2.152-13.881-10.537-25.722-22.192-32.585c5.115-5.65,8.235-13.137,8.235-21.34 c0-6.15-1.758-11.895-4.792-16.768c23.5,0.765,49.414-1.422,77.478-10.732c17.455-5.791,53.774-17.842,79.285-52.348 C437.19,96.149,438.42,54.202,436.774,32.417z M154.351,480.586c0.036,0,0.071,0.006,0.107,0.006c0.042,0,0.083-0.004,0.125-0.006 h185.274c9.634,0,17.878,6.068,21.109,14.585H93.034c3.231-8.516,11.475-14.585,21.109-14.585H154.351z M173.988,106.677 c-7.732,0-14.024-6.292-14.024-14.024v-0.561h43.287h46.83h43.952v0.561c0,7.733-6.291,14.024-14.024,14.024H173.988z M225.083,150.474c0.514,0.098,1.042,0.154,1.584,0.154c0.682,0,1.342-0.09,1.978-0.243c7.584,0.74,13.533,7.15,13.533,14.927 c0,4.954-2.426,9.342-6.139,12.075c-6.957-0.669-13.732-1.526-20.343-2.441c-2.192-2.608-3.519-5.968-3.519-9.634 C212.176,157.752,217.802,151.498,225.083,150.474z M226.667,197.14c8.272,0,15.001,6.729,15.001,15.001 c0,8.271-6.729,15-15.001,15c-8.271,0.001-15-6.729-15-15C211.667,203.87,218.396,197.14,226.667,197.14z M160.454,288.755 c-8.067,1.47-23.181,2.386-37.036-6.898c-23.294-15.609-21.008-45.845-20.982-46.149c1.566-18.411,13.563-31.344,18.647-36.048 c20.028-18.533,45.548-14.818,80.869-9.68c0.552,0.081,1.112,0.162,1.668,0.242c-5.436,5.713-8.782,13.43-8.782,21.919 c0,8.326,3.217,15.911,8.467,21.588c-11.431,6.899-19.634,18.625-21.76,32.336C171.041,269.272,162.905,277.945,160.454,288.755z M263.461,281.556c7.733,0,14.024,6.291,14.024,14.024s-6.291,14.024-14.024,14.024h-72.925c-7.733,0-14.024-6.291-14.024-14.024 s6.291-14.024,14.024-14.024H263.461z M254.927,264.727h-55.855c3.62-11.996,14.768-20.756,27.927-20.756 S251.305,252.733,254.927,264.727z"/></symbol><symbol id="unhealthy" viewBox="0 0 507.733 507.733"><title>unhealthy</title><g transform="translate(1 2)"> <g> <g> <path d="M506.733,143.493L361.667-1.573l-42.24,42.24l-42.24-42.24L-1,275.76l42.667,42.667L-0.147,360.24L144.92,505.307 l42.24-42.24l42.24,42.24l277.333-277.333l-42.24-42.24L506.733,143.493z M277.187,22.32l29.867,29.867l-253.44,253.44 L23.747,275.76L277.187,22.32z M144.067,480.56L23.747,360.24l29.867-29.867v0L331.8,53.04l-0.427-0.427l30.293-30.293 l120.32,120.32L144.067,480.56z M481.987,227.12l-253.44,253.44l-29.44-29.44l253.44-253.44L481.987,227.12z"/> <path d="M440.173,137.52L367.64,64.987c-3.413-3.413-8.533-3.413-11.947,0c-3.413,3.413-3.413,8.533,0,11.947l30.293,30.293 l-24.693,24.693c-6.88-4.8-15.2-7.2-23.52-7.2c-11.093,0-22.187,5.12-29.867,12.8c-8.533,7.68-12.8,18.773-12.8,29.867 c0,8.32,2.88,16.16,7.56,23.16l-31.417,31.417c-5.167-3.384-11.348-5.083-17.957-5.083c-8.533,0-17.067,3.413-23.893,10.24 c-11.447,11.447-13.291,28.289-5.545,41.48l-31.59,32.235c-6.867-4.769-15.159-7.155-23.452-7.155 c-11.093,0-21.333,5.12-29.867,12.8c-8.533,7.68-12.8,18.773-12.8,29.867c0,8.233,2.825,16.464,7.419,23.301l-24.912,24.912 L78.36,354.267c-3.413-3.413-8.533-3.413-11.947,0c-3.413,3.413-3.413,8.533,0,11.947l33.969,33.969 c0.426,0.975,1.047,1.9,1.871,2.724c0.903,0.903,1.809,1.559,2.838,1.985l33.855,33.855c1.707,1.707,3.413,2.56,5.973,2.56 c1.707,0,4.267-0.853,5.973-2.56c3.413-3.413,3.413-8.533,0-11.947L120.6,396.507l24.693-24.693c6.88,4.8,15.2,7.2,23.52,7.2 c11.093,0,21.333-4.267,29.867-12.8c8.533-7.68,12.8-18.773,12.8-29.867c0-8.26-2.841-16.517-7.461-23.368l31.587-32.231 c5.48,3.495,11.582,5.252,17.688,5.252c8.533,0,17.067-3.413,23.893-10.24c11.429-11.429,13.284-28.237,5.579-41.419 l31.487-31.487c6.88,4.8,15.2,7.2,23.52,7.2c11.093,0,21.333-5.12,29.867-12.8s12.8-18.773,12.8-29.867 c0-8.233-2.824-16.464-7.419-23.301l24.912-24.912l30.293,30.293c1.707,1.707,3.413,2.56,5.973,2.56s4.267-0.853,5.973-2.56 C443.587,146.053,443.587,140.933,440.173,137.52z M186.733,354.267c-9.387,10.24-25.6,10.24-35.84,0 c-5.12-4.267-7.68-11.093-7.68-17.92s2.56-12.8,7.68-17.92c4.267-5.12,11.093-7.68,17.92-7.68s12.8,2.56,17.92,7.68 c0.309,0.309,0.619,0.58,0.933,0.833c4.498,4.291,6.747,10.689,6.747,17.087C194.413,343.173,191.853,349.147,186.733,354.267z M265.24,263.813c-6.827,6.827-17.067,6.827-23.893,0s-6.827-17.067,0-23.893c3.413-3.413,7.68-5.12,11.947-5.12 s8.533,1.707,11.947,5.12C272.067,246.747,272.067,256.987,265.24,263.813z M355.693,185.307c-9.387,9.387-26.453,9.387-35.84,0 c-0.001-0.001-0.002-0.002-0.003-0.003c-0.238-0.238-0.487-0.456-0.741-0.661c-4.621-4.29-6.936-10.771-6.936-17.257 c0-6.827,3.413-12.8,7.68-17.92s11.093-7.68,17.92-7.68c6.826,0,12.8,2.56,17.92,7.68c0,0,0,0,0,0 c0.309,0.309,0.619,0.58,0.933,0.833c4.498,4.291,6.747,10.689,6.747,17.087C363.373,174.213,360.813,180.187,355.693,185.307z"/> <path d="M455.533,462.64c0-5.12-3.413-8.533-8.533-8.533c-5.12,0-8.533,3.413-8.533,8.533s3.413,8.533,8.533,8.533 C452.12,471.173,455.533,467.76,455.533,462.64z"/> <path d="M429.933,462.64c0-5.12-3.413-8.533-8.533-8.533s-8.533,3.413-8.533,8.533s3.413,8.533,8.533,8.533 S429.933,467.76,429.933,462.64z"/> <path d="M429.933,479.707c-5.12,0-8.533,3.413-8.533,8.533s3.413,8.533,8.533,8.533s8.533-3.413,8.533-8.533 S435.053,479.707,429.933,479.707z"/> <path d="M455.533,479.707c-5.12,0-8.533,3.413-8.533,8.533s3.413,8.533,8.533,8.533c5.12,0,8.533-3.413,8.533-8.533 S460.653,479.707,455.533,479.707z"/> <path d="M481.133,462.64c0-5.12-3.413-8.533-8.533-8.533s-8.533,3.413-8.533,8.533s3.413,8.533,8.533,8.533 S481.133,467.76,481.133,462.64z"/> <path d="M481.133,479.707c-5.12,0-8.533,3.413-8.533,8.533s3.413,8.533,8.533,8.533s8.533-3.413,8.533-8.533 S486.253,479.707,481.133,479.707z"/> <path d="M404.333,479.707c-5.12,0-8.533,3.413-8.533,8.533s3.413,8.533,8.533,8.533s8.533-3.413,8.533-8.533 S409.453,479.707,404.333,479.707z"/> <path d="M404.333,462.64c0-5.12-3.413-8.533-8.533-8.533c-5.12,0-8.533,3.413-8.533,8.533s3.413,8.533,8.533,8.533 C400.92,471.173,404.333,467.76,404.333,462.64z"/> <path d="M395.8,437.04c0,5.12,3.413,8.533,8.533,8.533s8.533-3.413,8.533-8.533s-3.413-8.533-8.533-8.533 S395.8,431.92,395.8,437.04z"/> <path d="M378.733,462.64c0-5.12-3.413-8.533-8.533-8.533s-8.533,3.413-8.533,8.533s3.413,8.533,8.533,8.533 S378.733,467.76,378.733,462.64z"/> <path d="M464.067,445.573c5.12,0,8.533-3.413,8.533-8.533s-3.413-8.533-8.533-8.533s-8.533,3.413-8.533,8.533 S458.947,445.573,464.067,445.573z"/> <path d="M447,411.44c-5.12,0-8.533,3.413-8.533,8.533s3.413,8.533,8.533,8.533c5.12,0,8.533-3.413,8.533-8.533 S452.12,411.44,447,411.44z"/> <path d="M412.867,402.907c-5.12,0-8.533,3.413-8.533,8.533s3.413,8.533,8.533,8.533s8.533-3.413,8.533-8.533 S417.987,402.907,412.867,402.907z"/> <path d="M344.6,479.707c-5.12,0-8.533,3.413-8.533,8.533s3.413,8.533,8.533,8.533s8.533-3.413,8.533-8.533 S349.72,479.707,344.6,479.707z"/> <path d="M387.267,437.04c0-5.12-3.413-8.533-8.533-8.533s-8.533,3.413-8.533,8.533s3.413,8.533,8.533,8.533 S387.267,442.16,387.267,437.04z"/> <path d="M344.6,454.107c-5.12,0-8.533,3.413-8.533,8.533s3.413,8.533,8.533,8.533s8.533-3.413,8.533-8.533 S349.72,454.107,344.6,454.107z"/> <path d="M489.667,437.04c-5.12,0-8.533,3.413-8.533,8.533c0,5.12,3.413,8.533,8.533,8.533s8.533-3.413,8.533-8.533 C498.2,440.453,494.787,437.04,489.667,437.04z"/> <path d="M319,479.707c-5.12,0-8.533,3.413-8.533,8.533s3.413,8.533,8.533,8.533s8.533-3.413,8.533-8.533 S324.12,479.707,319,479.707z"/> <path d="M429.933,445.573c5.12,0,8.533-3.413,8.533-8.533s-3.413-8.533-8.533-8.533s-8.533,3.413-8.533,8.533 S424.813,445.573,429.933,445.573z"/> <path d="M378.733,479.707c-5.12,0-8.533,3.413-8.533,8.533s3.413,8.533,8.533,8.533s8.533-3.413,8.533-8.533 S383.853,479.707,378.733,479.707z"/> </g> </g> </g></symbol><symbol id="funds" viewBox="0 0 442.003 442.003"><title>funds</title><path d="M337.897,189.476c-0.01-0.082-0.016-0.165-0.028-0.246c-0.058-0.404-0.135-0.807-0.244-1.205 c-0.001-0.004-0.003-0.008-0.004-0.013c-0.102-0.372-0.232-0.739-0.379-1.102c-0.042-0.104-0.088-0.204-0.133-0.306 c-0.116-0.262-0.245-0.52-0.385-0.774c-0.061-0.111-0.12-0.222-0.186-0.331c-0.035-0.059-0.063-0.12-0.1-0.179 c-0.148-0.235-0.31-0.456-0.474-0.675c-0.031-0.041-0.056-0.084-0.087-0.124c-0.25-0.324-0.52-0.625-0.803-0.91 c-0.053-0.054-0.111-0.104-0.166-0.156c-0.246-0.237-0.501-0.459-0.767-0.668c-0.068-0.053-0.134-0.106-0.204-0.157 c-0.356-0.264-0.723-0.51-1.106-0.723L185.506,98.164l84.825-53.414l142.207,80.832l-59.891,37.713 c-4.674,2.942-6.077,9.117-3.134,13.79c2.942,4.674,9.116,6.077,13.79,3.134l74.026-46.613c2.976-1.873,4.749-5.172,4.669-8.688 c-0.079-3.516-1.998-6.73-5.056-8.468L275.009,24.404c-3.203-1.822-7.15-1.732-10.27,0.231L160.783,90.096 c-0.021,0.013-0.043,0.027-0.064,0.04l-51.947,32.711c-0.024,0.015-0.048,0.03-0.071,0.045L4.674,188.398 c-2.976,1.873-4.749,5.172-4.669,8.688c0.079,3.516,1.998,6.73,5.056,8.468l161.934,92.046c1.534,0.873,3.238,1.307,4.941,1.307 c1.853,0,3.703-0.515,5.328-1.538l74.026-46.614c4.674-2.942,6.077-9.117,3.134-13.79c-2.941-4.674-9.117-6.078-13.79-3.134 l-68.961,43.424L29.466,196.421l84.826-53.415l151.67,86.212v114.182c0,3.642,1.979,6.995,5.167,8.755 c1.507,0.832,3.171,1.245,4.833,1.245c1.854,0,3.704-0.515,5.328-1.538l52.014-32.753c2.908-1.831,4.672-5.026,4.672-8.462v-120 c0-0.059-0.01-0.115-0.012-0.174C337.958,190.141,337.936,189.809,337.897,189.476z M285.962,325.287V223.401 c0-3.597-1.932-6.916-5.059-8.693l-147.411-83.791l32.813-20.663l142.206,80.833l-12.451,7.84 c-4.674,2.942-6.077,9.117-3.134,13.79c1.9,3.02,5.149,4.673,8.472,4.673c1.82,0,3.664-0.497,5.318-1.539l11.259-7.089v96.366 L285.962,325.287z"/><path d="M426.674,156.681l-74.026,46.613c-4.674,2.942-6.077,9.117-3.134,13.79c1.9,3.02,5.149,4.673,8.472,4.673 c1.82,0,3.664-0.497,5.318-1.539l74.026-46.613c4.674-2.942,6.077-9.117,3.134-13.79 C437.522,155.141,431.347,153.737,426.674,156.681z"/><path d="M240.633,273.83l-68.961,43.424L14.943,228.167c-4.798-2.728-10.906-1.052-13.635,3.752 c-2.729,4.801-1.05,10.906,3.752,13.635l161.934,92.046c1.534,0.873,3.238,1.307,4.941,1.307c1.853,0,3.703-0.515,5.328-1.538 l74.026-46.614c4.674-2.942,6.077-9.117,3.134-13.79C251.482,272.29,245.306,270.886,240.633,273.83z"/><path d="M426.674,196.681l-74.026,46.613c-4.674,2.942-6.077,9.117-3.134,13.79c1.9,3.02,5.149,4.673,8.472,4.673 c1.82,0,3.664-0.497,5.318-1.539l74.026-46.613c4.674-2.942,6.077-9.117,3.134-13.79 C437.522,195.14,431.347,193.737,426.674,196.681z"/><path d="M240.633,313.83l-68.961,43.424L14.943,268.167c-4.798-2.728-10.906-1.052-13.635,3.752 c-2.729,4.801-1.05,10.906,3.752,13.635l161.934,92.046c1.534,0.873,3.238,1.307,4.941,1.307c1.853,0,3.703-0.515,5.328-1.538 l74.026-46.614c4.674-2.942,6.077-9.117,3.134-13.79C251.482,312.289,245.306,310.886,240.633,313.83z"/><path d="M426.674,236.681l-74.026,46.613c-4.674,2.942-6.077,9.117-3.134,13.79c1.9,3.02,5.149,4.673,8.472,4.673 c1.82,0,3.664-0.497,5.318-1.539l74.026-46.613c4.674-2.942,6.077-9.117,3.134-13.79 C437.522,235.141,431.347,233.738,426.674,236.681z"/><path d="M240.633,353.83l-68.961,43.424L14.943,308.167c-4.798-2.728-10.906-1.052-13.635,3.752 c-2.729,4.801-1.05,10.906,3.752,13.635l161.934,92.046c1.534,0.873,3.238,1.307,4.941,1.307c1.853,0,3.703-0.515,5.328-1.538 l74.026-46.614c4.674-2.942,6.077-9.117,3.134-13.79C251.482,352.29,245.306,350.886,240.633,353.83z"/></symbol><symbol id="nature-2" viewBox="0 0 512 512"><title>nature-2</title><g> <g> <path d="M263.306,17.546c-1.295-2.872-4.154-4.718-7.306-4.718s-6.01,1.846-7.306,4.718 c-22.841,50.593-34.915,109.394-34.915,170.046c0,60.014,11.828,118.21,34.205,168.44v135.125c0,4.427,3.589,8.017,8.017,8.017 c4.427,0,8.017-3.589,8.017-8.017V356.032c22.377-50.23,34.204-108.427,34.204-168.441 C298.221,126.939,286.148,68.138,263.306,17.546z M256,333.578c-17.171-44.404-26.188-94.468-26.188-145.987 c0-51.519,9.017-101.582,26.188-145.987c17.172,44.405,26.188,94.469,26.188,145.987C282.188,239.11,273.171,289.173,256,333.578z "/> </g> </g><g> <g> <path d="M234.666,383.662c-31.245-19.984-69.288-34.222-110.018-41.174c-40.71-6.949-81.656-6.203-118.41,2.16 c-3.151,0.717-5.564,3.256-6.119,6.439c-0.555,3.184,0.855,6.39,3.579,8.131c31.245,19.984,69.288,34.222,110.018,41.174 c18.424,3.145,36.895,4.714,55.005,4.714c21.906,0,43.285-2.296,63.404-6.874c3.151-0.717,5.564-3.256,6.119-6.439 C238.8,388.61,237.39,385.403,234.666,383.662z M116.415,384.588c-30.848-5.265-60.01-14.897-85.505-28.156 c28.99-4.035,60.058-3.428,91.042,1.861c30.847,5.265,60.01,14.897,85.504,28.156 C178.464,390.484,147.398,389.877,116.415,384.588z"/> </g> </g><g> <g> <path d="M237.581,420.108c-1.191-2.49-3.58-4.194-6.323-4.509c-23.496-2.688-47.097,0.886-68.249,10.337 c-21.284,9.51-38.779,24.381-50.596,43.005c-1.479,2.331-1.655,5.26-0.465,7.751c1.191,2.492,3.579,4.195,6.323,4.509 c5.077,0.58,10.158,0.869,15.219,0.869c18.361,0,36.449-3.798,53.03-11.206c21.284-9.51,38.779-24.381,50.596-43.005 C238.595,425.527,238.771,422.599,237.581,420.108z M179.979,456.226c-14.192,6.342-29.661,9.662-45.4,9.807 c9.354-10.643,21.237-19.319,34.972-25.457c14.192-6.342,29.661-9.662,45.4-9.807 C205.597,441.411,193.714,450.088,179.979,456.226z"/> </g> </g><g> <g> <path d="M238.03,360.599c-14.719-49.335-41.408-98.431-77.181-141.981c-35.786-43.566-78.487-78.932-123.486-102.276 c-2.857-1.483-6.322-1.113-8.801,0.938c-2.48,2.051-3.492,5.386-2.573,8.469c14.719,49.334,41.407,98.43,77.181,141.981 c35.786,43.566,78.487,78.932,123.486,102.276c1.165,0.604,2.431,0.901,3.69,0.901c1.829,0,3.643-0.625,5.111-1.84 C237.937,367.016,238.949,363.681,238.03,360.599z M115.56,257.553c-29.727-36.188-52.917-76.29-67.781-117.016 c36.531,21.966,71.035,52.167,100.68,88.256c29.727,36.189,52.915,76.29,67.781,117.017 C179.708,323.845,145.205,293.643,115.56,257.553z"/> </g> </g><g> <g> <path d="M511.881,351.088c-0.556-3.184-2.968-5.723-6.119-6.439c-36.756-8.362-77.701-9.108-118.41-2.16 c-40.73,6.952-78.773,21.19-110.018,41.174c-2.722,1.741-4.133,4.947-3.579,8.131c0.556,3.184,2.968,5.723,6.119,6.439 c20.123,4.578,41.497,6.874,63.404,6.874c18.108,0,36.583-1.569,55.005-4.714c40.73-6.952,78.773-21.19,110.018-41.174 C511.026,357.478,512.436,354.272,511.881,351.088z M395.588,384.588c-30.983,5.289-62.051,5.897-91.041,1.861 c25.495-13.258,54.656-22.89,85.504-28.156c30.983-5.289,62.051-5.896,91.041-1.861 C455.596,369.692,426.435,379.322,395.588,384.588z"/> </g> </g><g> <g> <path d="M399.586,468.943c-11.815-18.624-29.311-33.495-50.596-43.005c-21.151-9.451-44.75-13.026-68.249-10.337 c-2.743,0.313-5.132,2.017-6.323,4.509c-1.191,2.492-1.015,5.419,0.465,7.751c11.817,18.623,29.312,33.494,50.596,43.005 c16.583,7.41,34.666,11.207,53.03,11.206c5.059,0,10.143-0.289,15.219-0.869c2.743-0.313,5.132-2.017,6.323-4.509 C401.242,474.202,401.067,471.274,399.586,468.943z M332.022,456.226c-13.735-6.138-25.618-14.814-34.972-25.457 c15.739,0.146,31.208,3.466,45.4,9.807c13.735,6.138,25.618,14.814,34.972,25.457 C361.685,465.887,346.212,462.567,332.022,456.226z"/> </g> </g><g> <g> <path d="M483.44,117.281c-2.479-2.05-5.944-2.421-8.801-0.938c-44.999,23.344-87.699,58.709-123.486,102.276 c-35.774,43.551-62.463,92.646-77.181,141.981c-0.919,3.083,0.093,6.418,2.573,8.469c1.469,1.214,3.283,1.84,5.111,1.84 c1.259,0,2.525-0.296,3.69-0.901c44.999-23.342,87.699-58.709,123.486-102.276c35.774-43.551,62.463-92.646,77.181-141.981 C486.932,122.667,485.92,119.332,483.44,117.281z M396.442,257.554c-29.646,36.09-64.15,66.292-100.68,88.256 c14.864-40.727,38.054-80.827,67.781-117.017c29.646-36.09,64.149-66.292,100.68-88.256 C449.357,181.264,426.169,221.365,396.442,257.554z"/> </g> </g></symbol><symbol id="medical-3" viewBox="0 0 140.083 140.083"><title>medical-3</title><path d="M110.854,0.093c-16.112,0-29.238,13.116-29.238,29.226v44.104c-1.812-3.036-3.887-5.955-6.499-8.565 c-8.317-8.317-19.37-12.895-31.122-12.895c-11.757,0-22.812,4.578-31.127,12.895c-17.156,17.158-17.156,45.081,0,62.241 c8.316,8.306,19.371,12.892,31.127,12.892s22.804-4.573,31.122-12.892c3.002-3.009,5.289-6.425,7.248-9.98 c2.917,13.062,14.556,22.872,28.489,22.872c16.108,0,29.229-13.116,29.229-29.226V29.313 C140.083,13.205,126.972,0.093,110.854,0.093z M110.854,8.862c11.281,0,20.46,9.176,20.46,20.462v36.336H90.386V29.325 C90.386,18.033,99.573,8.862,110.854,8.862z M19.071,71.054c6.662-6.651,15.504-10.328,24.924-10.328 c7.93,0,15.366,2.736,21.517,7.533L16.28,117.478C5.562,103.667,6.391,83.727,19.071,71.054z M68.918,120.905 c-12.266,12.262-32.819,13.088-46.411,2.762l49.201-49.198C82.419,88.279,81.593,108.214,68.918,120.905z M110.854,131.224 c-11.29,0-20.468-9.183-20.468-20.46V74.435h40.933v36.329C131.322,122.042,122.135,131.224,110.854,131.224z"/></symbol><symbol id="possession" viewBox="0 0 120.101 120.101"><title>possession</title><path d="M22.529,89.252c4.401,0,8.523-1.561,11.896-4.262c4.413,3.547,9.785,5.574,15.519,5.574c6.724,0,13.024-2.648,17.756-7.436 c9.623-9.788,9.493-25.588-0.295-35.211c-4.679-4.613-10.888-7.155-17.461-7.155c-2.875,0-5.642,0.576-8.263,1.501V19.157 C41.68,8.594,33.085,0,22.529,0C11.963,0,3.366,8.594,3.366,19.157v50.945C3.366,80.659,11.963,89.252,22.529,89.252z M9.419,70.096V46.798h24.447c-0.556,0.479-1.155,0.878-1.676,1.398c-8.763,8.922-9.339,22.791-1.986,32.468 c-2.213,1.619-4.859,2.529-7.675,2.529C15.292,83.2,9.419,77.325,9.419,70.096z M63.384,78.874 c-6.348,6.442-16.976,7.14-24.281,2.11l25.995-26.422C70.465,61.886,69.945,72.212,63.384,78.874z M60.795,50.315l-26.02,26.442 c-5.358-7.317-4.838-17.641,1.723-24.311c3.573-3.632,8.346-5.636,13.444-5.636C53.889,46.81,57.642,48.063,60.795,50.315z M22.529,6.047c7.223,0,13.099,5.875,13.099,13.104v21.595H9.419V19.151C9.419,11.922,15.292,6.047,22.529,6.047z M116.735,56.276 c0,1.67-1.348,3.026-3.026,3.026H92.524L75.359,98.544c-0.484,1.105-1.572,1.82-2.777,1.82H7.788c-1.667,0-3.026-1.359-3.026-3.026 c0-1.673,1.359-3.026,3.026-3.026h62.819l17.165-39.247c0.484-1.1,1.572-1.814,2.778-1.814h23.158 C115.387,53.25,116.735,54.607,116.735,56.276z M30.568,111.442c0,4.787-3.881,8.659-8.653,8.659c-4.788,0-8.668-3.878-8.668-8.659 c0-4.782,3.88-8.665,8.668-8.665C26.687,102.789,30.568,106.666,30.568,111.442z M61.363,111.442c0,4.787-3.877,8.659-8.665,8.659 c-4.776,0-8.668-3.878-8.668-8.659c0-4.782,3.892-8.665,8.668-8.665C57.485,102.789,61.363,106.666,61.363,111.442z"/></symbol><symbol id="syringe" viewBox="0 0 512.002 512.002"><title>syringe</title><path d="M469.336,76.801c-7.689,0-22.588,1.988-35.9,15.3l-42.24,42.24l-13.363-13.363l42.069-42.411 c13.312-13.312,15.3-28.203,15.3-35.9c0-23.526-19.14-42.667-42.667-42.667c-23.526,0-42.667,19.14-42.667,42.667 c0,13.824,6.741,26.846,18.031,34.85c3.849,2.731,9.173,1.818,11.896-2.022c2.722-3.849,1.826-9.173-2.022-11.895 c-6.784-4.813-10.837-12.638-10.837-20.932c0-14.114,11.486-25.6,25.6-25.6c14.114,0,25.6,11.486,25.6,25.6 c0,8.602-3.755,17.289-10.325,23.859l-42.044,42.385l-35.635-35.644c-6.647-6.647-17.468-6.656-24.149,0L205.963,173.296 c-3.337,3.328-3.337,8.73,0,12.066c3.328,3.328,8.73,3.328,12.066,0L318.057,85.334l66.807,66.799 c0.094,0.111,0.128,0.256,0.239,0.367c0.111,0.111,0.247,0.145,0.367,0.239l41.199,41.207l-84.727,84.727l-20.173-20.173 c-3.337-3.336-8.73-3.336-12.066,0c-3.336,3.337-3.336,8.73,0,12.066l20.173,20.173l-39.134,39.134l-20.173-20.173 c-3.337-3.336-8.73-3.336-12.066,0c-3.336,3.337-3.336,8.73,0,12.066l20.173,20.173l-39.134,39.134l-20.173-20.173 c-3.336-3.336-8.73-3.336-12.066,0c-3.337,3.337-3.337,8.73,0,12.066l20.173,20.173l-11.998,11.998 c-9.668,9.668-26.53,9.66-36.207,0l-12.066-12.066c-1.604-1.604-3.772-2.5-6.033-2.5s-4.437,0.896-6.033,2.5l-30.165,30.165 L88.766,387.03l30.165-30.165c3.337-3.337,3.337-8.738,0-12.066l-12.066-12.066c-4.779-4.779-7.569-11.213-7.859-18.108 c-0.265-6.153,1.604-11.844,4.992-15.232l77.534-77.525h193.937c4.719,0,8.533-3.823,8.533-8.533c0-4.71-3.814-8.533-8.533-8.533 h-197.47c-2.261,0-4.429,0.896-6.033,2.5l-80.034,80.017c-6.81,6.818-10.453,17.033-9.975,28.032 c0.478,11.187,5.035,21.641,12.843,29.448l6.033,6.033L76.7,374.964c-6.656,6.656-6.656,17.485,0,24.141l12.066,12.066 L2.502,497.435c-3.336,3.337-3.336,8.73,0,12.066c1.664,1.664,3.849,2.5,6.033,2.5c2.185,0,4.369-0.836,6.033-2.5l86.263-86.263 l12.066,12.066c3.328,3.328,7.697,4.992,12.075,4.992c4.369,0,8.738-1.664,12.066-4.992l24.132-24.132l6.033,6.033 c8.064,8.055,18.773,12.493,30.174,12.493c11.392,0,22.11-4.437,30.165-12.493l211.191-211.191c6.656-6.656,6.656-17.476,0-24.132 l-35.473-35.473l42.24-42.24c6.554-6.545,15.232-10.3,23.834-10.3c14.114,0,25.6,11.486,25.6,25.6s-11.486,25.6-25.6,25.6 c-8.294,0-16.12-4.053-20.932-10.837c-2.714-3.849-8.047-4.753-11.896-2.031c-3.849,2.731-4.745,8.055-2.022,11.895 c8.004,11.298,21.035,18.039,34.85,18.039c23.526,0,42.667-19.14,42.667-42.667S492.862,76.801,469.336,76.801z"/></symbol><symbol id="vitamins" viewBox="0 0 512 512"><title>vitamins</title><g> <g> <path d="M255.999,255.256c-17.587,0-31.896,14.309-31.896,31.896s14.309,31.896,31.896,31.896 c17.587,0,31.896-14.309,31.896-31.896C287.895,269.565,273.587,255.256,255.999,255.256z M255.999,299.046 c-6.557,0-11.892-5.334-11.892-11.892s5.335-11.892,11.892-11.892c6.557,0,11.892,5.334,11.892,11.892 S262.557,299.046,255.999,299.046z"/> </g> </g><g> <g> <path d="M210.221,325.029c-17.587,0-31.896,14.309-31.896,31.896c0,17.587,14.309,31.896,31.896,31.896 s31.896-14.309,31.896-31.896S227.808,325.029,210.221,325.029z M210.222,368.817c-6.557,0-11.892-5.335-11.892-11.892 c0-6.557,5.335-11.892,11.892-11.892c6.557,0,11.892,5.334,11.892,11.892C222.114,363.483,216.778,368.817,210.222,368.817z"/> </g> </g><g> <g> <path d="M301.777,325.029c-17.587,0-31.896,14.309-31.896,31.896c0,17.587,14.309,31.896,31.896,31.896 c17.587,0,31.896-14.309,31.896-31.896S319.364,325.029,301.777,325.029z M301.778,368.817c-6.557,0-11.892-5.335-11.892-11.892 c0-6.557,5.335-11.892,11.892-11.892c6.557,0,11.892,5.334,11.892,11.892C313.67,363.483,308.334,368.817,301.778,368.817z"/> </g> </g><g> <g> <path d="M164.399,394.801c-17.587,0-31.896,14.309-31.896,31.896c0,17.587,14.309,31.896,31.896,31.896 s31.896-14.309,31.896-31.896C196.295,409.109,181.987,394.801,164.399,394.801z M164.399,438.589 c-6.557,0-11.892-5.335-11.892-11.892c0-6.557,5.335-11.892,11.892-11.892s11.892,5.334,11.892,11.892 C176.292,433.255,170.957,438.589,164.399,438.589z"/> </g> </g><g> <g> <path d="M255.999,394.801c-17.587,0-31.896,14.309-31.896,31.896c0,17.587,14.309,31.896,31.896,31.896 c17.587,0,31.896-14.309,31.896-31.896C287.895,409.109,273.587,394.801,255.999,394.801z M255.999,438.589 c-6.557,0-11.892-5.335-11.892-11.892c0-6.557,5.335-11.892,11.892-11.892c6.557,0,11.892,5.334,11.892,11.892 C267.892,433.255,262.557,438.589,255.999,438.589z"/> </g> </g><g> <g> <path d="M347.6,394.801c-17.587,0-31.896,14.309-31.896,31.896c0,17.587,14.309,31.896,31.896,31.896 c17.587,0,31.896-14.309,31.896-31.896C379.496,409.109,365.187,394.801,347.6,394.801z M347.6,438.589 c-6.557,0-11.892-5.335-11.892-11.892c0-6.557,5.335-11.892,11.892-11.892c6.557,0,11.892,5.334,11.892,11.892 C359.492,433.255,354.157,438.589,347.6,438.589z"/> </g> </g><g> <g> <path d="M482.05,83.36c-39.933-39.933-104.911-39.933-144.824-0.02l-81.102,80.639L174.794,83.36 c-39.935-39.935-104.913-39.932-144.844,0c-39.933,39.933-39.933,104.911,0,144.844l87.64,87.64 c1.952,1.952,4.513,2.93,7.072,2.93c2.55,0,5.101-0.969,7.051-2.909l124.413-123.682l124.151,123.675 c1.951,1.944,4.506,2.917,7.059,2.917c2.56,0,5.12-0.977,7.072-2.93l87.64-87.64C521.983,188.271,521.983,123.294,482.05,83.36z M124.683,294.649l-16.176-16.176l69.564-69.564c3.906-3.906,3.906-10.239,0-14.145c-3.907-3.906-10.238-3.905-14.146,0 l-69.563,69.564L44.095,214.06c-32.134-32.134-32.134-84.42,0-116.555C60.16,81.44,81.254,73.408,102.361,73.408 c21.111,0,42.236,8.044,58.32,24.128l81.257,80.547L124.683,294.649z M467.904,214.059l-80.581,80.582l-117.01-116.562 l16.44-16.346l69.748,69.748c1.953,1.953,4.513,2.93,7.072,2.93c2.559,0,5.12-0.977,7.072-2.93c3.906-3.906,3.906-10.239,0-14.145 l-69.707-69.708l50.411-50.123c32.132-32.133,84.42-32.135,116.554,0C500.038,129.639,500.038,181.925,467.904,214.059z"/> </g> </g><g> <g> <path d="M396.584,243.271c-0.468-0.46-0.978-0.88-1.528-1.24c-0.54-0.36-1.12-0.67-1.721-0.92c-0.6-0.25-1.229-0.44-1.87-0.57 c-1.29-0.26-2.62-0.26-3.91,0c-0.641,0.13-1.271,0.32-1.87,0.57c-0.601,0.25-1.181,0.56-1.73,0.92c-0.54,0.36-1.06,0.78-1.52,1.24 s-0.88,0.97-1.24,1.52c-0.36,0.54-0.67,1.12-0.92,1.73c-0.25,0.6-0.44,1.23-0.57,1.87s-0.2,1.3-0.2,1.95 c0,0.65,0.07,1.31,0.2,1.96c0.13,0.63,0.32,1.26,0.57,1.87c0.25,0.6,0.56,1.18,0.92,1.72c0.36,0.55,0.78,1.06,1.24,1.52 c0.46,0.46,0.979,0.88,1.52,1.25c0.55,0.36,1.13,0.67,1.73,0.92c0.6,0.25,1.229,0.44,1.87,0.57c0.649,0.13,1.3,0.19,1.949,0.19 c0.66,0,1.311-0.06,1.96-0.19c0.641-0.13,1.271-0.32,1.87-0.57c0.601-0.25,1.181-0.56,1.721-0.92c0.55-0.37,1.06-0.79,1.529-1.25 c0.46-0.46,0.87-0.97,1.24-1.52c0.36-0.54,0.67-1.12,0.92-1.72c0.25-0.61,0.44-1.24,0.57-1.87c0.13-0.65,0.2-1.31,0.2-1.96 C399.515,247.712,398.445,245.132,396.584,243.271z"/> </g> </g><g> <g> <path d="M206.739,173.948c-0.13-0.64-0.32-1.27-0.57-1.87c-0.25-0.61-0.56-1.19-0.92-1.73c-0.36-0.55-0.78-1.06-1.24-1.52 s-0.979-0.88-1.52-1.24c-0.55-0.36-1.13-0.67-1.73-0.92c-0.6-0.25-1.229-0.44-1.87-0.57c-1.29-0.26-2.62-0.26-3.91,0 c-0.641,0.13-1.271,0.32-1.87,0.57c-0.601,0.25-1.181,0.56-1.73,0.92c-0.54,0.36-1.05,0.78-1.52,1.24 c-0.46,0.46-0.88,0.97-1.24,1.52c-0.36,0.54-0.67,1.12-0.92,1.73c-0.25,0.6-0.44,1.23-0.57,1.87c-0.13,0.64-0.2,1.3-0.2,1.95 c0,0.65,0.07,1.31,0.2,1.96c0.13,0.63,0.32,1.26,0.57,1.87c0.25,0.6,0.56,1.18,0.92,1.72c0.36,0.55,0.78,1.06,1.24,1.52 c0.47,0.46,0.979,0.88,1.52,1.25c0.55,0.36,1.13,0.67,1.73,0.92c0.6,0.25,1.229,0.44,1.87,0.57c0.649,0.13,1.3,0.19,1.96,0.19 c2.63,0,5.2-1.07,7.07-2.931c0.46-0.46,0.88-0.97,1.24-1.52c0.36-0.54,0.67-1.12,0.92-1.72c0.25-0.61,0.44-1.24,0.57-1.87 c0.13-0.65,0.189-1.31,0.189-1.96C206.928,175.248,206.868,174.588,206.739,173.948z"/> </g> </g><g> <g> <path d="M146.602,184.952l-21.382-57.391c-0.447-1.115-0.806-1.679-1.542-2.415c-4.027-4.027-14.973,0.773-18.188,3.989 c-2.316,2.316-2.954,4.876-1.842,7.398l15.662,36.083l-36.08-15.661c-2.489-1.095-5.154-0.405-7.502,1.943 c-4.379,4.379-7.955,14.224-4.092,18.086c0.567,0.567,1.762,1.321,2.656,1.554l57.351,21.366 c3.165,1.218,7.605-1.667,10.447-4.509C145.155,192.33,147.739,187.911,146.602,184.952z"/> </g> </g></symbol><symbol id="drugs-1" viewBox="0 0 512 512"><title>drugs-1</title><path d="M398.397,213.687l12.142-12.142c43.432-43.434,43.446-113.712,0.031-157.13c-21.028-21.025-48.98-32.226-78.717-32.226 c-0.013,0-0.03,0-0.042,0c-29.747,0-57.719,11.229-78.763,32.272L32.678,264.646C11.603,285.72-0.001,313.609,0,343.351 c0.003,29.723,11.591,57.732,32.631,78.771c21.033,21.035,48.991,32.688,78.722,32.688c0.014,0,0.024,0,0.039,0 c29.714,0,57.651-11.669,78.659-32.677l35.849-35.9c14.293,64.89,72.221,113.578,141.343,113.578 c79.819,0,144.756-64.95,144.756-144.769C512,285.92,463.288,227.979,398.397,213.687z M268.798,60.209 c16.839-16.84,39.22-25.75,63.022-25.75c0.012,0,0.022,0,0.034,0c23.787,0,46.15,8.886,62.968,25.704 c34.733,34.732,34.72,91.072-0.031,125.822l-24.554,24.459c-0.999-0.021-1.99-0.122-2.993-0.122 c-44.395,0-84.167,20.083-110.742,51.648l-94.908-94.731L268.798,60.209z M222.487,355.033c0,1.005,0.056,2.043,0.076,3.042 l-48.261,48.308c-16.803,16.805-39.144,26.156-62.913,26.156c-0.009,0-0.02,0-0.031,0c-23.784,0-46.151-9.382-62.98-26.212 c-16.835-16.832-26.106-39.247-26.109-63.021c-0.001-23.793,9.286-46.211,26.155-63.077l97.421-97.432l97.486,97.48 C230.11,302.113,222.487,327.697,222.487,355.033z M367.244,477.516c-67.539,0-122.486-54.947-122.486-122.486 c0-29.769,10.685-57.082,28.407-78.332l172.411,172.41C424.326,466.831,397.013,477.516,367.244,477.516z M461.322,433.362 l-172.41-172.411c21.249-17.722,48.564-28.407,78.332-28.407c67.539,0,122.486,54.947,122.486,122.486 C489.73,384.799,479.046,412.112,461.322,433.362z"/></symbol><symbol id="criminal" viewBox="0 0 512 512"><title>criminal</title><path d="M362,180h135c8.284,0,15-6.716,15-15s-6.716-15-15-15H389.42c1.665-4.695,2.58-9.742,2.58-15 c0-19.846-12.92-36.721-30.787-42.686c-0.096-0.773-0.203-1.544-0.317-2.314H497c8.284,0,15-6.716,15-15s-6.716-15-15-15H351.561 C334.701,25.673,298.215,0,255,0c-41.802,0-77.973,24.557-94.855,60H15C6.716,60,0,66.716,0,75s6.716,15,15,15h136.076 c-0.111,0.771-0.214,1.544-0.308,2.32C132.911,98.291,120,115.161,120,135c0,5.258,0.915,10.305,2.58,15H15 c-8.284,0-15,6.716-15,15s6.716,15,15,15h135v47c0,5.093,0.372,10.099,1.076,15H15c-8.284,0-15,6.716-15,15s6.716,15,15,15 h145.145c4.257,8.938,9.742,17.181,16.234,24.514L156.261,332c-6.603,0-136.105,0-141.261,0c-8.284,0-15,6.716-15,15 s6.716,14.8,15,14.8h51.832c-2.341,2.481-4.623,5.096-6.83,7.852C40.935,393.462,30,424.708,30,455.028V467 c0,8.284,6.716,15,15,15h75v15c0,8.284,6.716,15,15,15h242c8.284,0,15-6.716,15-15v-15h75c8.284,0,15-6.716,15-15v-10.294 c0-27.584-10.413-58.38-27.854-82.379c-3.226-4.439-6.607-8.548-10.116-12.327H497c8.284,0,15-6.716,15-15s-6.716-15-15-15 c-6.652,0-134.335,0-141.261,0l-20.427-36.031c6.586-7.329,12.034-15.386,16.249-23.969H497c8.284,0,15-6.716,15-15 s-6.716-15-15-15H360.897c0.728-4.929,1.103-9.938,1.103-15V180z M255,29.8c36.483,0,68.018,26.442,75.38,60.2H181.507 C188.476,55.809,218.781,29.8,255,29.8z M120,407v45H60.045c1.46-48.79,37.901-90,67.843-90h30.898l30,30H135 C126.716,392,120,398.716,120,407z M255,332c20.36,0,39.973-5.715,56.97-16.374l16.35,28.84L280.787,392h-49.574l-47.534-47.534 l16.016-28.251C215.767,326.214,234.719,332,255,332z M222.889,294.763L234.271,272h43.459l11.049,22.099 C278.514,299.134,267.03,302.2,255,302.2C243.515,302.2,232.629,299.397,222.889,294.763z M313.074,275.608l-12.658-25.316 C297.875,245.21,292.682,242,287,242h-62c-5.682,0-10.875,3.21-13.417,8.292l-13.014,26.028C187.022,263.124,180,245.872,180,227 v-47h152v47C332,245.352,324.798,262.406,313.074,275.608z M362,482H150v-60c11.202,0,200.043,0,212,0V482z M353.213,362h28.934 c35.079,0,67.438,47.823,69.724,90H392v-45c0-8.284-6.716-15-15-15h-53.787L353.213,362z M347,150H165c-8.271,0-15-6.729-15-15 s6.729-15,15-15h182c8.271,0,15,6.729,15,15S355.271,150,347,150z"/></symbol><symbol id="policeman" viewBox="0 0 511.999 511.999"><title>policeman</title><g> <g> <path d="M256.001,60.939c-24.822,0-45.016,19.594-45.016,44.416c0,24.822,20.194,45.616,45.016,45.616 c24.822,0,45.016-20.794,45.016-45.616C301.017,80.533,280.823,60.939,256.001,60.939z M256.001,120.36 c-8.274,0-15.005-6.731-15.005-15.005c0-8.274,6.731-15.005,15.005-15.005c8.274,0,15.005,6.731,15.005,15.005 C271.006,113.629,264.275,120.36,256.001,120.36z"/> </g> </g><g> <g> <path d="M381.193,331.936h-24.045l-8.052-26.427c7.622-14.541,11.942-31.074,11.942-48.599v-82.343 c18.649-8.41,32.578-20.359,39.474-41.048c10.412-31.236-4.033-64.401-32.238-78.831L290.516,8.35 c-17.857-10.649-49.602-11.609-69.048,0.002l-77.745,46.335c-28.051,14.354-42.7,47.436-32.235,78.831 c6.934,20.802,20.982,32.708,39.474,41.047v82.343c0,17.525,4.321,34.057,11.942,48.599l-8.052,26.427h-26.009 c-49.188,0-97.924,58.266-97.924,123.072v41.987c0,8.287,6.718,15.005,15.005,15.005h165.059h90.032h165.059 c8.287,0,15.005-6.718,15.005-15.005v-40.308C481.081,400.333,437.944,331.936,381.193,331.936z M157.674,144.453 c-25.842-12.921-26.137-50.121,0-63.191c0.33-0.165,0.653-0.342,0.97-0.531l77.678-46.496c12.357-6.001,26.986-6.001,39.342-0.001 l77.692,46.498c0.317,0.189,0.641,0.366,0.971,0.531c25.996,12.998,25.941,50.219,0.001,63.19 c-5.068,2.534-10.836,6.519-20.176,6.519h-78.151H177.85C168.811,150.972,163.294,147.264,157.674,144.453z M256.002,331.936 c-0.001,0-0.002,0-0.003,0c-41.369-0.001-75.025-33.657-75.025-75.027v-31.552c12.549,9.441,28.139,14.446,45.016,14.446h60.021 c16.877,0,32.468-5.005,45.016-14.446v31.552C331.028,298.279,297.371,331.935,256.002,331.936z M270.039,382.201 c-2.135,5.689-7.614,9.756-14.039,9.756c-6.425,0-11.904-4.067-14.039-9.756L256,368.162L270.039,382.201z M183.545,180.782 h144.911c-6.193,17.467-22.881,29.21-42.444,29.21H225.99C206.427,209.992,189.738,198.249,183.545,180.782z M198.273,481.99 H60.931v-26.982c0-50.119,37.342-93.061,67.913-93.061h27.851l25.863,51.727c4.572,9.144,16.793,11.14,24.032,3.899l2.903-2.903 L198.273,481.99z M200.09,381.632l-18.022-36.045l3.34-10.964c11.142,10.131,24.465,17.901,39.17,22.521L200.09,381.632z M228.698,481.99l10.545-63.27c10.747,4.328,22.745,4.338,33.516,0l10.545,63.27H228.698z M287.423,357.144 c14.705-4.62,28.028-12.39,39.17-22.521l3.34,10.964l-18.022,36.045L287.423,357.144z M313.727,481.99l-11.219-67.32l2.903,2.903 c7.255,7.255,19.462,5.239,24.032-3.899l25.863-51.726h25.885c36.36,0,69.878,51.419,69.878,94.74v25.303H313.727z"/> </g> </g></symbol><symbol id="gun" viewBox="0 0 512 512"><title>gun</title><path d="M497,76h-15V61c0-8.284-6.716-15-15-15s-15,6.716-15,15v15H165h-60H45c-8.284,0-15,6.716-15,15c0,8.271-6.729,15-15,15 c-8.284,0-15,6.716-15,15v60v30c0,8.284,6.716,15,15,15c7.974,0,14.515,6.254,14.975,14.115L5.042,414.636 C1.17,441.745,22.233,466,49.59,466h59.011c22.574,0,41.764-16.885,44.635-39.277L163.585,346h61.343 c0.02,0,0.04,0.003,0.06,0.003c0.115,0,0.23-0.009,0.345-0.012C249.993,345.811,270,325.701,270,301v-45h167 c5.682,0,10.876-3.21,13.416-8.292L476.27,196H497c8.284,0,15-6.716,15-15V91C512,82.716,505.284,76,497,76z M115.812,106h28.376 l-20,60H95.812L115.812,106z M30,133.43c12.768-4.527,22.903-14.662,27.43-27.43h26.759l-20,60H30V133.43z M180,316 c-16.542,0-30-13.458-30-30s13.458-30,30-30h0.639c-6.168,19.844-3.882,41.575,7.095,60H180z M240,301 c0,7.156-5.041,13.149-11.756,14.637c-20.307-12.552-26.992-38.925-15.086-59.637H240V301z M427.729,226 c-16.212,0-237.378,0-247.729,0c-33.084,0-60,26.916-60,60c0,15.626,6.01,29.872,15.832,40.56l-12.353,96.348 c-0.957,7.464-7.354,13.093-14.879,13.093H49.59c-9.142,0-16.144-8.061-14.849-17.122C61.597,230.89,60,242.589,60,241 c0-19.556-12.539-36.239-30-42.43V196c13.714,0,404.147,0,412.729,0L427.729,226z M482,166c-10.4,0-300.98,0-326.188,0l20-60H482 V166z"/></symbol><symbol id="badge" viewBox="0 0 512.001 512.001"><title>badge</title><g> <g> <path d="M414.071,284.768l-17.657-88.208c-4.51-22.533-3.052-45.962,4.217-67.756l10.957-32.856 c4.114-12.336-8.907-24.399-20.914-19.147c-20.029,8.759-40.106,13.2-59.673,13.2c-25.819,0-46.728-7.01-68.58-17.38 c-4.285-2.029-9.141-1.873-13.144,0.134c-22.82,11.444-45.792,17.246-68.276,17.246c-19.567,0-39.644-4.441-59.673-13.201 c-5.602-2.451-12.13-1.255-16.5,3.021l-0.674,0.659c-4.104,4.015-5.557,10.021-3.74,15.468l10.957,32.857 c7.269,21.794,8.727,45.223,4.216,67.755l-17.661,88.217c-4.031,20.204-3.263,43.045,2.105,62.667 c7.16,26.177,32.087,44.09,62.027,44.576c31.394,0.509,60.485,11.584,84.129,32.027c5.696,4.921,14.077,4.801,19.625,0 c23.645-20.443,52.735-31.518,84.129-32.027c29.94-0.486,54.867-18.399,62.026-44.575 C417.336,327.822,418.104,304.981,414.071,284.768z M383.032,339.528c-3.551,12.981-17.357,22.232-33.576,22.495 c-33.762,0.547-66.493,11.66-93.455,31.511c-26.962-19.851-59.693-30.963-93.456-31.511c-16.218-0.263-30.025-9.514-33.577-22.496 c-4.119-15.053-4.725-33.327-1.624-48.872l17.659-88.208c5.534-27.646,3.745-56.394-5.173-83.134l-1.649-4.946 c14.317,3.746,28.639,5.634,42.82,5.634c24.945,0,50.14-5.8,75-17.217c24.86,11.417,50.055,17.217,75,17.217 c14.181,0,28.503-1.888,42.82-5.633c-9.548,28.626-13.256,55.946-6.823,88.081l17.657,88.197 C387.758,306.2,387.151,324.473,383.032,339.528z"/> </g> </g><g> <g> <path d="M480.231,79.744c1.797-5.39,0.394-11.332-3.624-15.35l-60-60c-5.628-5.627-14.667-5.881-20.601-0.58 c-0.292,0.263-29.716,26.187-65.005,26.187c-34.746,0-64.361-25.622-65.027-26.205c-5.669-5.046-14.247-5.035-19.937-0.008 c-0.296,0.263-30.067,26.213-65.036,26.213c-34.968,0-64.74-25.951-65.006-26.186c-5.934-5.3-14.975-5.046-20.601,0.58l-60,60 c-4.018,4.018-5.42,9.96-3.624,15.35l22.677,68.033c3.966,11.899,4.762,24.688,2.303,36.986l-17.646,88.232 c-5.609,28.041-4.896,58.687,2.006,86.292c11.586,46.343,49.397,81.926,96.328,90.651c40.987,7.621,73.971,23.686,98.037,47.75 l9.918,9.918c2.93,2.93,6.769,4.394,10.608,4.394s7.678-1.464,10.606-4.394l9.918-9.918c24.066-24.065,57.05-40.131,98.038-47.751 c46.931-8.725,84.741-44.308,96.327-90.651c6.902-27.607,7.614-58.253,2.006-86.292l-17.646-88.232 c-2.46-12.298-1.663-25.087,2.303-36.986L480.231,79.744z M425.833,190.646l17.646,88.233c4.756,23.773,4.155,49.745-1.691,73.131 c-8.747,34.986-37.286,61.848-72.708,68.433c-46.679,8.679-84.719,27.3-113.079,55.349 c-28.36-28.049-66.399-46.669-113.078-55.347c-35.421-6.586-63.96-33.447-72.707-68.434c-5.848-23.385-6.449-49.356-1.693-73.131 l17.646-88.232c3.482-17.409,2.354-35.513-3.259-52.356L63.163,79.053l44.184-44.184c14.597,10.032,41.851,25.132,73.654,25.132 c32.808,0,60.775-16.069,75-26.067c14.226,9.998,42.192,26.067,75,26.067c31.803,0,59.058-15.1,73.654-25.132l44.184,44.184 l-19.746,59.238C423.478,155.134,422.352,173.238,425.833,190.646z"/> </g> </g><g> <g> <path d="M335.38,206.262l-45.556-6.619l-20.372-41.279c-5.49-11.124-21.408-11.133-26.902,0l-20.373,41.28l-45.554,6.619 c-12.276,1.784-17.203,16.92-8.313,25.585l32.963,32.132l-7.782,45.371c-2.097,12.226,10.776,21.59,21.764,15.813l40.746-21.423 l40.745,21.421c10.98,5.771,23.863-3.576,21.765-15.813l-7.782-45.371l32.964-32.132 C352.576,223.189,347.666,208.047,335.38,206.262z M284.142,248.001c-3.536,3.446-5.149,8.411-4.314,13.277l3.978,23.187 l-20.824-10.947c-4.369-2.298-9.591-2.298-13.96,0l-20.824,10.947l3.977-23.187c0.834-4.866-0.779-9.831-4.314-13.277 l-16.846-16.421l23.281-3.383c4.886-0.71,9.109-3.779,11.294-8.206l10.411-21.096l10.411,21.096 c2.185,4.427,6.409,7.496,11.294,8.206l23.282,3.383L284.142,248.001z"/> </g> </g></symbol><symbol id="nature-1" viewBox="0 0 512.001 512.001"><title>nature-1</title><path d="M398.896,337.417c41.875-39.177,71.787-92.259,81.903-152.956c1.69-10.139-7.12-18.956-17.262-17.262 c-49.639,8.273-95.584,30.129-133.07,62.755c0.343-5.874,0.534-11.857,0.534-17.958c0-110.992-59.996-201.567-62.55-205.368 c-5.936-8.835-18.963-8.839-24.901,0C240.996,10.429,181,101.004,181,211.996c0,6.101,0.191,12.084,0.534,17.958 c-37.486-32.625-83.431-54.482-133.07-62.755c-10.141-1.692-18.952,7.119-17.262,17.262 c10.1,60.601,39.968,113.722,81.903,152.956c-44.323,12.449-75.824,42.161-77.479,43.746c-6.168,5.905-6.166,15.768,0,21.672 C37.723,404.842,87.715,452,151,452c36.737,0,68.992-15.891,90.001-29.616v74.617c0,8.284,6.716,15,15,15c8.284,0,15-6.716,15-15 v-74.617C292.011,436.109,324.266,452,361.003,452c63.285,0,113.277-47.158,115.375-49.165c6.165-5.905,6.164-15.768-0.003-21.672 C474.72,379.579,443.217,349.867,398.896,337.417z M323.486,279.791c32.052-38.341,75.036-65.591,123.012-78.274 c-13.707,52.127-44.274,97.756-87.735,130.508c-21.118,0.37-40.694,5.917-57.424,13.168 C309.691,327.073,317.847,305.054,323.486,279.791z M65.501,201.516c47.975,12.684,90.958,39.935,123.012,78.275 c5.639,25.263,13.795,47.283,22.147,65.402c-16.73-7.251-36.305-12.798-57.424-13.168 C109.775,299.273,79.208,253.643,65.501,201.516z M69.806,391.972c53.642-38.979,106.376-40.508,162.383,0.056 C176.362,432.593,123.584,430.916,69.806,391.972z M255.999,365.885c-63.094-99.986-56.283-214.746,0-321.004 C311.826,150.273,319.434,265.481,255.999,365.885z M279.809,391.972c53.642-38.979,106.376-40.508,162.383,0.056 C386.365,432.593,333.587,430.916,279.809,391.972z"/></symbol><symbol id="nature" viewBox="0 0 59.997 59.997"><title>nature</title><circle cx="34.008" cy="25.998" r="1"/><circle cx="23.008" cy="37.998" r="1"/><circle cx="43.008" cy="40.998" r="1"/><circle cx="50.008" cy="30.998" r="1"/><circle cx="39.008" cy="21.998" r="1"/><path d="M53.495,44.269L53.495,44.269c-1.138-0.312-2.293-0.354-3.429-0.127c-0.359,0.072-0.712-0.005-0.967-0.211l-1.411-1.132 c-0.397-0.318-0.521-0.88-0.301-1.364c0.401-0.882,0.733-1.804,0.986-2.739c0.128-0.472,0.452-0.869,0.892-1.091 c0.398-0.202,0.835-0.229,1.228-0.076c1.861,0.72,3.949,0.604,5.726-0.31c3.236-1.668,4.665-5.733,3.185-9.063 c-0.769-1.727-2.165-3.044-3.933-3.709s-3.687-0.594-5.402,0.198c-0.313,0.145-0.654,0.354-1.039,0.636 c-0.432,0.315-0.94,0.435-1.422,0.336c-0.48-0.097-0.895-0.399-1.164-0.851c-0.574-0.96-1.265-1.819-1.961-2.684 c-0.636-0.791-0.744-1.889-0.277-2.795l1.479-2.87c0.42-0.817,1.176-1.373,1.974-1.452c0.741-0.073,1.476-0.274,2.183-0.598 c2.248-1.028,3.824-3.132,4.112-5.489c0.271-2.206-0.48-4.354-2.061-5.895s-3.746-2.236-5.955-1.906 c-2.959,0.44-5.359,2.81-5.836,5.763c-0.22,1.358-0.049,2.73,0.494,3.965c0.359,0.819,0.36,1.688,0.003,2.382l-1.158,2.249 c-0.593,1.149-1.93,1.741-3.104,1.374c-1.059-0.331-2.824-0.555-4.119-0.685c-0.362-0.036-0.663-0.299-0.747-0.651l-1.139-4.804 c-0.063-0.265,0.017-0.55,0.218-0.783c1.205-1.392,1.696-3.233,1.347-5.056c-0.45-2.334-2.306-4.224-4.618-4.703 c-1.802-0.372-3.65,0.067-5.057,1.214c-1.407,1.146-2.214,2.843-2.214,4.655c0,2.485,1.57,4.738,3.908,5.605 c0.328,0.122,0.555,0.352,0.621,0.632l0.912,3.852c0.1,0.419-0.143,0.849-0.563,1.001c-1.347,0.485-2.632,1.131-3.821,1.919 c-0.453,0.301-1.067,0.288-1.46-0.029c-0.516-0.418-0.49-1.053-0.313-1.47c0.743-1.744,0.911-3.667,0.485-5.563 c-0.768-3.412-3.594-6.139-7.034-6.784C9.73,4.59,6.774,5.499,4.638,7.641C2.5,9.783,1.602,12.74,2.175,15.753 c0.682,3.592,3.561,6.442,7.165,7.095c1.535,0.275,3.041,0.174,4.481-0.299c0.435-0.145,0.936,0.018,1.242,0.401l0.4,0.497 c0.312,0.389,0.347,0.92,0.088,1.354c-1.282,2.149-2.087,4.497-2.392,6.977c-0.066,0.534-0.477,0.939-0.997,0.986l-1.897,0.17 c-0.444,0.044-0.781-0.226-0.946-0.388c-0.94-0.917-2.137-1.449-3.462-1.539c-2.229-0.148-4.319,1.072-5.275,3.036 c-0.738,1.516-0.764,3.248-0.069,4.754s2.012,2.608,3.616,3.024c2.327,0.604,4.751-0.369,6.026-2.42 c0.179-0.288,0.531-0.481,0.941-0.519l1.631-0.146c0.508-0.052,0.988,0.275,1.151,0.782c0.701,2.175,1.801,4.177,3.272,5.952 c0.166,0.199,0.155,0.5-0.025,0.7c-0.174,0.193-0.446,0.192-0.642,0.133c-0.839-0.268-1.716-0.362-2.608-0.276 c-2.974,0.282-5.417,2.631-5.81,5.584c-0.28,2.114,0.44,4.159,1.979,5.611c1.539,1.453,3.625,2.055,5.737,1.652 c2.317-0.442,4.257-2.199,4.942-4.477c0.313-1.043,0.367-2.1,0.162-3.142c-0.03-0.152,0.02-0.318,0.132-0.442l0.785-0.872 c0.166-0.185,0.437-0.239,0.641-0.127c0.517,0.282,1.056,0.541,1.6,0.77c0.664,0.279,1.062,1.003,0.991,1.799 c-0.062,0.689-0.019,1.391,0.128,2.083c0.616,2.926,3.126,5.185,6.104,5.492c0.242,0.024,0.484,0.037,0.726,0.037 c1.731,0,3.414-0.637,4.703-1.8c1.47-1.325,2.313-3.221,2.313-5.199c0-0.438-0.042-0.879-0.124-1.313 c-0.157-0.814,0.168-1.577,0.828-1.943c1.038-0.576,2.021-1.256,2.923-2.021c0.327-0.277,0.701-0.399,0.998-0.323 c0.45,0.113,0.672,0.378,0.778,0.579c0.15,0.284,0.17,0.628,0.055,0.942c-0.449,1.223-0.57,2.562-0.35,3.871 c0.537,3.18,3.147,5.704,6.348,6.138c2.311,0.311,4.583-0.425,6.245-2.026c1.662-1.6,2.487-3.841,2.263-6.149 C58.675,47.692,56.474,45.086,53.495,44.269z M55.322,55.461c-1.22,1.173-2.899,1.715-4.589,1.484 c-2.342-0.317-4.252-2.163-4.645-4.488c-0.166-0.98-0.08-1.938,0.254-2.849c0.311-0.846,0.251-1.78-0.163-2.565 c-0.419-0.793-1.149-1.355-2.057-1.585c-0.939-0.234-1.951,0.031-2.783,0.738c-0.801,0.681-1.675,1.285-2.598,1.797 c-1.408,0.78-2.141,2.416-1.823,4.067c0.059,0.31,0.089,0.625,0.089,0.938c0,1.413-0.603,2.767-1.652,3.714 c-1.063,0.959-2.441,1.414-3.884,1.258c-2.123-0.219-3.912-1.828-4.352-3.915c-0.105-0.499-0.137-1-0.093-1.492 c0.147-1.667-0.739-3.202-2.208-3.82c-0.483-0.203-0.96-0.433-1.419-0.682c-0.376-0.205-0.785-0.305-1.192-0.305 c-0.699,0-1.39,0.294-1.891,0.849l-0.785,0.872c-0.531,0.589-0.759,1.399-0.608,2.167c0.143,0.72,0.104,1.453-0.115,2.18 c-0.473,1.571-1.808,2.784-3.401,3.088c-1.471,0.28-2.923-0.135-3.988-1.142c-1.065-1.006-1.564-2.425-1.37-3.894 c0.268-2.007,1.994-3.665,4.016-3.857c0.624-0.057,1.232,0.005,1.812,0.191c1.011,0.321,2.06,0.053,2.735-0.699 c0.842-0.933,0.875-2.359,0.078-3.316c-1.307-1.577-2.284-3.356-2.906-5.288c-0.452-1.402-1.788-2.285-3.233-2.161l-1.632,0.146 c-1.033,0.093-1.953,0.637-2.461,1.455c-0.812,1.304-2.351,1.922-3.826,1.54c-1.021-0.265-1.86-0.967-2.302-1.926 c-0.448-0.973-0.43-2.053,0.052-3.041c0.604-1.24,1.938-2.024,3.342-1.916c0.844,0.057,1.604,0.394,2.199,0.974 c0.699,0.683,1.626,1.032,2.521,0.949l1.898-0.17c1.468-0.131,2.621-1.255,2.804-2.733c0.271-2.203,0.985-4.287,2.124-6.196 c0.681-1.141,0.582-2.6-0.246-3.632l-0.399-0.497c-0.826-1.029-2.201-1.451-3.428-1.049c-1.121,0.37-2.3,0.447-3.5,0.23 C6.9,20.374,4.668,18.164,4.14,15.38c-0.447-2.354,0.251-4.66,1.913-6.326c1.664-1.667,3.965-2.366,6.321-1.928 c2.666,0.501,4.857,2.614,5.452,5.259c0.333,1.482,0.204,2.982-0.374,4.338c-0.585,1.371-0.226,2.901,0.893,3.808 c1.069,0.869,2.644,0.928,3.825,0.144c1.056-0.7,2.197-1.273,3.394-1.705c1.378-0.497,2.166-1.934,1.832-3.343l-0.913-3.852 c-0.22-0.929-0.919-1.693-1.871-2.046c-1.557-0.578-2.604-2.077-2.604-3.73c0-1.209,0.538-2.34,1.477-3.104 c0.953-0.774,2.157-1.063,3.389-0.806c1.531,0.317,2.761,1.572,3.059,3.122c0.237,1.233-0.08,2.43-0.895,3.369 c-0.618,0.715-0.861,1.67-0.65,2.554l1.139,4.803c0.28,1.183,1.282,2.059,2.493,2.181c1.699,0.17,3.021,0.384,3.722,0.604 c2.128,0.66,4.43-0.333,5.478-2.367l1.158-2.249c0.636-1.233,0.654-2.729,0.051-4.102c-0.388-0.882-0.509-1.865-0.351-2.843 c0.34-2.102,2.049-3.789,4.156-4.103c1.585-0.239,3.135,0.26,4.265,1.36c1.129,1.1,1.665,2.638,1.472,4.219 c-0.205,1.673-1.339,3.173-2.96,3.914c-0.506,0.231-1.026,0.374-1.548,0.426c-1.487,0.147-2.816,1.092-3.555,2.526l-1.479,2.87 c-0.829,1.608-0.634,3.557,0.524,4.999c0.654,0.813,1.271,1.581,1.774,2.422c0.563,0.94,1.444,1.574,2.482,1.784 c1.042,0.215,2.11-0.03,3.002-0.682c0.341-0.251,0.566-0.374,0.696-0.435c1.226-0.565,2.598-0.616,3.859-0.142 c1.263,0.475,2.261,1.416,2.809,2.649c1.059,2.378,0.038,5.281-2.272,6.473c-1.269,0.653-2.76,0.733-4.089,0.222 c-0.93-0.359-1.942-0.305-2.853,0.157c-0.943,0.478-1.642,1.335-1.917,2.352c-0.226,0.832-0.521,1.65-0.877,2.434 c-0.601,1.318-0.243,2.861,0.869,3.754l1.411,1.131c0.717,0.577,1.669,0.802,2.609,0.612c0.833-0.165,1.676-0.134,2.509,0.095 v0.001c2.149,0.589,3.801,2.542,4.016,4.747C57.145,52.642,56.541,54.287,55.322,55.461z"/><path d="M32.008,36.998c-3.309,0-6,2.691-6,6s2.691,6,6,6s6-2.691,6-6S35.316,36.998,32.008,36.998z M32.008,46.998 c-2.206,0-4-1.794-4-4s1.794-4,4-4s4,1.794,4,4S34.214,46.998,32.008,46.998z"/><path d="M28.008,28.998c0-2.206-1.794-4-4-4s-4,1.794-4,4s1.794,4,4,4S28.008,31.204,28.008,28.998z M24.008,30.998 c-1.103,0-2-0.897-2-2s0.897-2,2-2s2,0.897,2,2S25.11,30.998,24.008,30.998z"/><path d="M41.008,27.998c-2.206,0-4,1.794-4,4s1.794,4,4,4s4-1.794,4-4S43.214,27.998,41.008,27.998z M41.008,33.998 c-1.103,0-2-0.897-2-2c0-1.103,0.897-2,2-2s2,0.897,2,2C43.008,33.101,42.11,33.998,41.008,33.998z"/></symbol><symbol id="medical-1" viewBox="0 0 54.759 54.759"><title>medical-1</title><path d="M50.491,21.652L38.085,3.484c-1.2-1.758-3.021-2.945-5.126-3.342c-2.105-0.398-4.233,0.046-5.991,1.247 s-2.945,3.021-3.342,5.126c-0.397,2.105,0.046,4.233,1.247,5.991l12.406,18.168c1.2,1.758,3.021,2.945,5.126,3.342 c0.503,0.095,1.008,0.142,1.508,0.142c1.593,0,3.145-0.475,4.483-1.389C52.038,30.283,52.978,25.295,50.491,21.652z M25.591,6.886 c0.298-1.58,1.187-2.946,2.504-3.845c1.001-0.684,2.165-1.039,3.359-1.039c0.376,0,0.756,0.035,1.134,0.106 c1.58,0.298,2.946,1.187,3.845,2.504l5.075,7.432l-9.91,6.767l-5.075-7.433C25.624,10.062,25.293,8.466,25.591,6.886z M47.268,31.119c-1.318,0.899-2.915,1.229-4.493,0.933c-1.58-0.298-2.946-1.187-3.845-2.504l-6.203-9.084l9.91-6.767l6.203,9.084 C50.705,25.512,50,29.253,47.268,31.119z"/><path d="M41.823,38.814l-13.629-1.623l3.043-3.565c2.864-3.355,2.464-8.415-0.891-11.279c-1.619-1.382-3.687-2.048-5.823-1.882 c-2.136,0.169-4.073,1.154-5.456,2.773L4.784,39.971c-1.382,1.62-2.05,3.688-1.882,5.823c0.169,2.136,1.154,4.073,2.773,5.456 c1.455,1.242,3.272,1.908,5.175,1.908c0.215,0,0.431-0.009,0.648-0.026c1.593-0.126,3.075-0.706,4.299-1.665 c0.729,0.325,1.495,0.54,2.288,0.634l21.846,2.601c0.32,0.038,0.637,0.057,0.951,0.057c3.992,0,7.455-2.995,7.938-7.055 C49.343,43.323,46.203,39.335,41.823,38.814z M20.589,24.537c1.035-1.213,2.488-1.951,4.092-2.078 c0.163-0.013,0.326-0.02,0.487-0.02c1.428,0,2.79,0.499,3.879,1.429c2.517,2.148,2.816,5.943,0.668,8.459l-5.843,6.845 l-9.127-7.791L20.589,24.537z M6.974,49.728c-2.517-2.148-2.816-5.942-0.668-8.458l7.141-8.366l9.127,7.791l-7.141,8.366 c0,0-0.001,0.001-0.001,0.001c-0.148,0.173-0.305,0.333-0.467,0.485l-0.008,0.008C12.757,51.605,9.314,51.725,6.974,49.728z M17.336,49.911l9.297-10.892l4.03,0.48l-1.418,11.916l-10.923-1.301C17.987,50.075,17.658,50.007,17.336,49.911z M46.835,47.467 c-0.391,3.285-3.377,5.644-6.667,5.249l-8.936-1.064l1.418-11.916l8.937,1.064c1.584,0.188,3.004,0.988,3.999,2.251 S47.024,45.883,46.835,47.467z"/></symbol><symbol id="medical" viewBox="0 0 60 60"><title>medical</title><circle cx="44" cy="40" r="1"/><circle cx="46" cy="57" r="1"/><circle cx="21" cy="49" r="1"/><circle cx="37" cy="43" r="1"/><circle cx="52" cy="48" r="1"/><circle cx="15" cy="57" r="1"/><path d="M17.071,12.899C13.171,9,6.828,9.001,2.929,12.899C1.04,14.788,0,17.299,0,19.97c0,2.671,1.04,5.183,2.929,7.071 l15.556,15.556l14.142-14.142L17.071,12.899z M4.343,25.627C2.832,24.116,2,22.107,2,19.97c0-2.137,0.832-4.146,2.343-5.657 c1.56-1.56,3.608-2.339,5.657-2.339s4.097,0.78,5.657,2.339l14.143,14.143L18.485,39.77L4.343,25.627z"/><path d="M57.071,3.929C55.182,2.04,52.671,1,50,1s-5.182,1.04-7.071,2.929L27.373,19.485l14.142,14.142l15.556-15.557 C58.96,16.182,60,13.671,60,11S58.96,5.818,57.071,3.929z M55.657,16.657L41.515,30.799L30.201,19.485L44.343,5.343 C45.854,3.832,47.863,3,50,3s4.146,0.832,5.657,2.343S58,8.863,58,11S57.168,15.146,55.657,16.657z"/><path d="M40,36c0-2.206-1.794-4-4-4s-4,1.794-4,4s1.794,4,4,4S40,38.206,40,36z M34,36c0-1.103,0.897-2,2-2s2,0.897,2,2 s-0.897,2-2,2S34,37.103,34,36z"/><path d="M29,40c-2.206,0-4,1.794-4,4s1.794,4,4,4s4-1.794,4-4S31.206,40,29,40z M29,46c-1.103,0-2-0.897-2-2s0.897-2,2-2 s2,0.897,2,2S30.103,46,29,46z"/><path d="M39,46c-2.206,0-4,1.794-4,4s1.794,4,4,4s4-1.794,4-4S41.206,46,39,46z M39,52c-1.103,0-2-0.897-2-2s0.897-2,2-2 s2,0.897,2,2S40.103,52,39,52z"/><path d="M29,51c-2.206,0-4,1.794-4,4s1.794,4,4,4s4-1.794,4-4S31.206,51,29,51z M29,57c-1.103,0-2-0.897-2-2s0.897-2,2-2 s2,0.897,2,2S30.103,57,29,57z"/></symbol><symbol id="drugs" viewBox="0 0 58 58"><title>drugs</title><path d="M54,0H14v14h2v6.917v19.306c-0.843-0.138-1.712-0.229-2.618-0.221c-5.069,0.07-9.048,2.533-9.354,5.687L4,45.7v6.429 c0.015,1.166,0.535,2.282,1.506,3.227C7.213,57.019,10.123,58,13.322,58c0.071,0,0.144,0,0.216-0.001 c1.906-0.026,3.658-0.391,5.129-0.999H49c1.598,0,3-1.316,3-2.817v-4.475V22.292V14h2V0z M45,12V2h2v10H45z M21,12V2h2v10H21z M25,2 h2v10h-2V2z M29,2h2v10h-2V2z M33,2h2v10h-2V2z M37,2h2v10h-2V2z M41,2h2v10h-2V2z M16,2h3v10h-3V2z M15.552,49.808 c-0.202,0.035-0.407,0.067-0.615,0.093c-0.084,0.01-0.17,0.016-0.255,0.025c-0.148,0.015-0.295,0.032-0.444,0.042 c-0.24,0.016-0.482,0.027-0.728,0.03c-0.495,0.007-0.98-0.017-1.454-0.063c-0.038-0.004-0.078-0.005-0.115-0.009 c-0.43-0.045-0.845-0.117-1.251-0.203l7.014-7.014c0.019,0.007,0.04,0.012,0.058,0.019c0.077,0.029,0.147,0.063,0.222,0.093 c0.072,0.03,0.136,0.065,0.206,0.096c0.185,0.083,0.372,0.163,0.544,0.256c0.047,0.025,0.092,0.05,0.137,0.076 c0.255,0.145,0.496,0.299,0.71,0.464c0.01,0.008,0.022,0.015,0.032,0.023c0.239,0.187,0.451,0.384,0.631,0.592l0.079,0.091 c0.086,0.107,0.165,0.215,0.232,0.326c0.029,0.047,0.058,0.095,0.085,0.144c0.064,0.12,0.114,0.241,0.156,0.364 c0.015,0.044,0.035,0.085,0.047,0.13c0.044,0.159,0.069,0.321,0.073,0.483c0,0.002,0.001,0.004,0.001,0.007l-0.027,0.259 c-0.178,1.689-2.394,3.151-5.282,3.669C15.589,49.803,15.571,49.805,15.552,49.808z M20,41.579c-0.016-0.009-0.034-0.018-0.05-0.027 c-0.02-0.011-0.036-0.024-0.056-0.036c-0.052-0.029-0.113-0.049-0.165-0.078c-0.319-0.173-0.659-0.333-1.019-0.479 c-0.154-0.063-0.308-0.123-0.467-0.18c-0.083-0.03-0.158-0.066-0.243-0.094V22.917h2V41.579z M13.409,42.001 C13.473,42,13.536,42,13.6,42c0.634,0,1.245,0.059,1.842,0.144l-6.865,6.865c-0.185-0.087-0.385-0.162-0.556-0.26 c-0.362-0.207-0.841-0.53-1.243-0.954c-0.015-0.016-0.033-0.031-0.047-0.048c-0.032-0.035-0.059-0.075-0.09-0.111 c-0.348-0.422-0.567-0.882-0.614-1.366l-0.01-0.363C6.19,43.823,9.488,42.055,13.409,42.001z M13.511,55.999 c-2.722,0.051-5.257-0.758-6.609-2.076C6.312,53.348,6.008,52.736,6,52.107v-2.318c0.04,0.032,0.086,0.06,0.126,0.091 c0.128,0.098,0.261,0.194,0.4,0.287c0.121,0.082,0.245,0.16,0.374,0.238c0.044,0.026,0.082,0.055,0.126,0.08 c0.027,0.016,0.06,0.026,0.087,0.041c0.809,0.457,1.744,0.821,2.78,1.072c0.022,0.005,0.044,0.012,0.066,0.017 c0.502,0.119,1.024,0.212,1.568,0.276c0.06,0.007,0.12,0.011,0.18,0.017c0.468,0.049,0.948,0.077,1.441,0.082 c0.059,0.001,0.116,0.01,0.175,0.01c0.071,0,0.143,0,0.215-0.001c0.365-0.005,0.722-0.025,1.074-0.054 c0.09-0.008,0.178-0.02,0.267-0.029c0.268-0.027,0.533-0.059,0.793-0.099c0.083-0.013,0.163-0.028,0.245-0.043 c0.275-0.048,0.545-0.102,0.809-0.164c0.052-0.012,0.104-0.025,0.156-0.038c0.312-0.078,0.616-0.164,0.911-0.261 c0.001,0,0.002-0.001,0.003-0.001c1.277-0.42,2.375-1.014,3.225-1.737c0,0.05,0,0.098,0,0.147c0.002,0.753,0.001,1.383-0.003,1.753 L21,51.926c0,0.141-0.019,0.282-0.05,0.422c-0.008,0.036-0.023,0.071-0.033,0.107c-0.029,0.104-0.062,0.208-0.108,0.311 c-0.019,0.044-0.044,0.087-0.066,0.13c-0.047,0.092-0.098,0.183-0.157,0.274c-0.033,0.05-0.07,0.1-0.107,0.15 c-0.058,0.079-0.122,0.157-0.19,0.234c-0.051,0.058-0.103,0.115-0.159,0.171c-0.061,0.062-0.129,0.123-0.196,0.184 c-0.074,0.066-0.147,0.133-0.228,0.197c-0.046,0.037-0.097,0.072-0.145,0.108C18.175,55.246,15.936,55.966,13.511,55.999z M50,27H40 v2h10v2H40v2h10v2H40v2h10v2H40v2h10v2H40v2h10v4H36V23h14V27z M50,21H34v30h16v3.183C50,54.587,49.495,55,49,55H21.679 c0.417-0.45,0.744-0.935,0.968-1.451c0.007-0.016,0.012-0.032,0.019-0.048c0.091-0.218,0.163-0.441,0.216-0.668 c0.012-0.05,0.025-0.099,0.035-0.149c0.048-0.247,0.081-0.497,0.082-0.752l0-0.001l0,0c0,0,0,0,0,0l-0.022,0 c0.034-0.345,0.047-0.886,0.048-1.78c0.001-0.894-0.01-2.14-0.026-3.893l-0.123-1.226l-0.064,0.011 c-0.002-0.008-0.004-0.016-0.006-0.025c-0.018-0.078-0.036-0.155-0.058-0.231c-0.053-0.183-0.12-0.362-0.199-0.538 c-0.023-0.052-0.04-0.105-0.066-0.157c-0.11-0.225-0.24-0.445-0.391-0.659c-0.028-0.04-0.063-0.078-0.093-0.118V20.917h-4V14h32V21z M52,12h-3V2h3V12z"/></symbol></svg>
